<?xml version="1.0" encoding="UTF-8"?>
<svg id="Ribbon" xmlns="http://www.w3.org/2000/svg" xmlns:xlink="http://www.w3.org/1999/xlink" viewBox="0 0 3126.84 701.05">
  <defs>
    <style>
      .cls-1 {
        fill: url(#_Безымянный_градиент_118);
      }

      .cls-2 {
        fill: url(#_Новый_образец_градиента_5-4);
      }

      .cls-3 {
        fill: url(#_Новый_образец_градиента_4-2);
      }

      .cls-4 {
        fill: url(#_Новый_образец_градиента_5-2);
      }

      .cls-5 {
        fill: #01a5c2;
      }

      .cls-6 {
        fill: #223362;
      }

      .cls-7 {
        fill: url(#_Новый_образец_градиента_5-3);
      }

      .cls-8 {
        fill: url(#_Новый_образец_градиента_5-5);
      }

      .cls-9 {
        fill: url(#_Новый_образец_градиента_4);
      }

      .cls-10 {
        fill: url(#_Новый_образец_градиента_2);
      }

      .cls-11 {
        fill: url(#_Новый_образец_градиента_5);
      }
    </style>
    <linearGradient id="_Безымянный_градиент_118" data-name="Безымянный градиент 118" x1="12.82" y1="126.21" x2="761.42" y2="637.87" gradientUnits="userSpaceOnUse">
      <stop offset="0" stop-color="#1fa7c7"/>
      <stop offset=".22" stop-color="#6cc5d5"/>
      <stop offset=".5" stop-color="#1fa7c7"/>
      <stop offset="1" stop-color="#0080b7"/>
    </linearGradient>
    <linearGradient id="_Новый_образец_градиента_2" data-name="Новый образец градиента 2" x1="36.35" y1="68.18" x2="473.46" y2="536.94" gradientUnits="userSpaceOnUse">
      <stop offset="0" stop-color="#0395c2"/>
      <stop offset=".25" stop-color="#5bc1d4"/>
      <stop offset=".53" stop-color="#0395c2"/>
      <stop offset="1" stop-color="#0075ae"/>
    </linearGradient>
    <linearGradient id="_Новый_образец_градиента_4" data-name="Новый образец градиента 4" x1="1090.49" y1="104.52" x2="657.47" y2="377.2" gradientUnits="userSpaceOnUse">
      <stop offset="0" stop-color="#145f92"/>
      <stop offset=".22" stop-color="#3497be"/>
      <stop offset=".5" stop-color="#145f92"/>
      <stop offset="1" stop-color="#233464"/>
    </linearGradient>
    <linearGradient id="_Новый_образец_градиента_4-2" data-name="Новый образец градиента 4" x1="1025.67" y1="145.27" x2="615.11" y2="456.76" xlink:href="#_Новый_образец_градиента_4"/>
    <linearGradient id="_Новый_образец_градиента_5" data-name="Новый образец градиента 5" x1="1473.3" y1="178.96" x2="1464.11" y2="399.56" gradientUnits="userSpaceOnUse">
      <stop offset="0" stop-color="#f7fcff"/>
      <stop offset=".51" stop-color="#cae5f9"/>
      <stop offset="1" stop-color="#79c6f0"/>
    </linearGradient>
    <linearGradient id="_Новый_образец_градиента_5-2" data-name="Новый образец градиента 5" x1="1828.88" y1="193.78" x2="1819.68" y2="414.37" xlink:href="#_Новый_образец_градиента_5"/>
    <linearGradient id="_Новый_образец_градиента_5-3" data-name="Новый образец градиента 5" x1="2015.05" y1="201.53" x2="2005.86" y2="422.13" xlink:href="#_Новый_образец_градиента_5"/>
    <linearGradient id="_Новый_образец_градиента_5-4" data-name="Новый образец градиента 5" x1="2383.4" y1="216.88" x2="2374.21" y2="437.48" xlink:href="#_Новый_образец_градиента_5"/>
    <linearGradient id="_Новый_образец_градиента_5-5" data-name="Новый образец градиента 5" x1="2917.9" y1="239.15" x2="2908.71" y2="459.75" xlink:href="#_Новый_образец_градиента_5"/>
  </defs>
  <g>
    <polygon class="cls-6" points="225.97 354.38 0 445.08 273.57 445.08 225.97 354.38"/>
    <path class="cls-5" d="M433.02,236.23l7.15,13.11s289.02-108.6,561.7-142.3c0,0-22.13-52.43-132.43-30.64-110.3,21.79-436.43,159.83-436.43,159.83Z"/>
    <path class="cls-5" d="M696.51,92.74S735.32,8.37,842.55,0h131.74l-19.91,40.14s-34.21-3.06-72.51,2.55-185.36,50.04-185.36,50.04Z"/>
    <path class="cls-1" d="M350.64,590.78C313.84,523.22,41.23,1.33,41.23,1.33L175.66.06s52.47-3.06,94.98,35.62c43.54,39.61,68.68,92.81,70.98,95.87l159.32,305.36s86.72,210.38,206.89,66.89l-47.49,93.11c-9.02,15.91-17.02,31.49-40,54.13s-39.74,31.66-39.74,31.66c0,0-26.21,17.36-57.53,18.21s-54.47-2.21-68.09-7.83c0,0-60.77-22.3-104.34-102.3Z"/>
    <path class="cls-10" d="M454.98,693.08c13.62,5.62,36.77,8.68,68.08,7.83,31.32-.85,57.53-18.21,57.53-18.21,0,0,16.77-9.02,39.74-31.66,22.98-22.64,30.98-38.21,40-54.13l19.04-37.33h0c-136.62,146.16-290.27-119.61-290.27-119.61,0,0-144-283.91-204.26-351.32C124.6,21.25,41.23,1.33,41.23,1.33c0,0,272.6,521.89,309.4,589.45,43.57,80,104.34,102.3,104.34,102.3Z"/>
    <path class="cls-9" d="M507.5,450.99l91.99-173.4,3.06-5.81-43.15,12.26-50.43,95.68-53.49-100.72,53.87-18.26s334.7-116.43,617.35-133.28c0,0-35.99,165.45-218.28,317.11l-166.72.51-33.87,58.72s-99.85,141.29-200.33-52.81Z"/>
    <path class="cls-3" d="M602.55,271.78l-3.06,5.81-91.99,173.4c100.49,194.11,196.16,60.3,196.16,60.3l38.04-66.21,145.77-.45c125.19-123.34,179.5-271.98,179.5-271.98-98.81-9.96-464.43,99.13-464.43,99.13Z"/>
  </g>
  <g>
    <path class="cls-11" d="M1325.85,183.77l146,272.5,148-272.5h85.5l-184.5,333.5h-99.5l-180.5-333.5h85Z"/>
    <path class="cls-4" d="M1783.84,183.77h77v333.5h-77V183.77Z"/>
    <path class="cls-7" d="M1970.34,183.77h77v333.5h-77V183.77Z"/>
    <path class="cls-2" d="M2156.84,183.77h119.5l250.5,277.5-1.5-277.5h73.5v333.5h-120l-249-276,1.5,276h-74.5V183.77Z"/>
    <path class="cls-8" d="M3126.84,338.77v35.5c0,61-3.5,83-15.5,105-10,18-26.5,29-52.5,35.5-18,4.5-46.5,5.5-147,5.5-88.5,0-131.5-3-152-11-32-12-48.5-31.5-55.5-67-4-19-5.5-41-5.5-88.5,0-88,5.5-116,27-139.5,14-15,33.5-24,60-27.5,31-4.5,66.5-6,164.5-6s132.5,7,153.5,31c14.5,16,21.5,42,21.5,79h-75.5c-.5-21-3-29-12.5-36.5-13-10.5-30-12.5-95-12.5-120.5,0-139,2-152,17.5-10.5,12-14,34-14,86,0,65,4,87.5,18,99.5,14.5,13,33.5,15.5,124,15.5,99,0,109.5-2,124.5-23.5,6.5-8.5,9-24.5,9-47.5h-148.5v-50.5h223.5Z"/>
  </g>
</svg>