<?xml version="1.0" encoding="UTF-8"?>
<svg id="Ribbon" xmlns="http://www.w3.org/2000/svg" xmlns:xlink="http://www.w3.org/1999/xlink" viewBox="0 0 1126.71 701.05">
  <defs>
    <style>
      .cls-1 {
        fill: url(#_Безымянный_градиент_118);
      }

      .cls-2 {
        fill: url(#_Новый_образец_градиента_4-2);
      }

      .cls-3 {
        fill: #01a5c2;
      }

      .cls-4 {
        fill: #223362;
      }

      .cls-5 {
        fill: url(#_Новый_образец_градиента_4);
      }

      .cls-6 {
        fill: url(#_Новый_образец_градиента_2);
      }
    </style>
    <linearGradient id="_Безымянный_градиент_118" data-name="Безымянный градиент 118" x1="12.82" y1="126.21" x2="761.42" y2="637.87" gradientUnits="userSpaceOnUse">
      <stop offset="0" stop-color="#1fa7c7"/>
      <stop offset=".22" stop-color="#6cc5d5"/>
      <stop offset=".5" stop-color="#1fa7c7"/>
      <stop offset="1" stop-color="#0080b7"/>
    </linearGradient>
    <linearGradient id="_Новый_образец_градиента_2" data-name="Новый образец градиента 2" x1="36.35" y1="68.18" x2="473.46" y2="536.94" gradientUnits="userSpaceOnUse">
      <stop offset="0" stop-color="#0395c2"/>
      <stop offset=".25" stop-color="#5bc1d4"/>
      <stop offset=".53" stop-color="#0395c2"/>
      <stop offset="1" stop-color="#0075ae"/>
    </linearGradient>
    <linearGradient id="_Новый_образец_градиента_4" data-name="Новый образец градиента 4" x1="1090.49" y1="104.52" x2="657.47" y2="377.2" gradientUnits="userSpaceOnUse">
      <stop offset="0" stop-color="#145f92"/>
      <stop offset=".22" stop-color="#3497be"/>
      <stop offset=".5" stop-color="#145f92"/>
      <stop offset="1" stop-color="#233464"/>
    </linearGradient>
    <linearGradient id="_Новый_образец_градиента_4-2" data-name="Новый образец градиента 4" x1="1025.67" y1="145.27" x2="615.11" y2="456.76" xlink:href="#_Новый_образец_градиента_4"/>
  </defs>
  <polygon class="cls-4" points="225.97 354.38 0 445.08 273.57 445.08 225.97 354.38"/>
  <path class="cls-3" d="M433.02,236.23l7.15,13.11s289.02-108.6,561.7-142.3c0,0-22.13-52.43-132.43-30.64s-436.43,159.83-436.43,159.83Z"/>
  <path class="cls-3" d="M696.51,92.74S735.32,8.37,842.55,0h131.74l-19.91,40.14s-34.21-3.06-72.51,2.55-185.36,50.04-185.36,50.04Z"/>
  <path class="cls-1" d="M350.64,590.78C313.84,523.22,41.23,1.33,41.23,1.33L175.66.06s52.47-3.06,94.98,35.62,68.68,92.81,70.98,95.87l159.32,305.36s86.72,210.38,206.89,66.89l-47.49,93.11c-9.02,15.91-17.02,31.49-40,54.13s-39.74,31.66-39.74,31.66c0,0-26.21,17.36-57.53,18.21s-54.47-2.21-68.09-7.83c0,0-60.77-22.3-104.34-102.3Z"/>
  <path class="cls-6" d="M454.98,693.08c13.62,5.62,36.77,8.68,68.08,7.83,31.32-.85,57.53-18.21,57.53-18.21,0,0,16.77-9.02,39.74-31.66,22.98-22.64,30.98-38.21,40-54.13l19.04-37.33h0c-136.62,146.16-290.27-119.61-290.27-119.61,0,0-144-283.91-204.26-351.32C124.6,21.25,41.23,1.33,41.23,1.33c0,0,272.6,521.89,309.4,589.45,43.57,80,104.34,102.3,104.34,102.3Z"/>
  <path class="cls-5" d="M507.5,450.99l91.99-173.4,3.06-5.81-43.15,12.26-50.43,95.68-53.49-100.72,53.87-18.26s334.7-116.43,617.35-133.28c0,0-35.99,165.45-218.28,317.11l-166.72.51-33.87,58.72s-99.85,141.29-200.33-52.81Z"/>
  <path class="cls-2" d="M602.55,271.78l-3.06,5.81-91.99,173.4c100.49,194.11,196.16,60.3,196.16,60.3l38.04-66.21,145.77-.45c125.19-123.34,179.5-271.98,179.5-271.98-98.81-9.96-464.43,99.13-464.43,99.13Z"/>
</svg>