<?xml version="1.0" encoding="UTF-8"?>
<svg id="_Слой_2" data-name="Слой 2" xmlns="http://www.w3.org/2000/svg" xmlns:xlink="http://www.w3.org/1999/xlink" viewBox="0 0 29.21 29.38">
  <defs>
    <style>
      .cls-1 {
        stroke: #084b37;
        stroke-miterlimit: 10;
        stroke-width: .75px;
      }

      .cls-1, .cls-2 {
        fill: #084b37;
      }

      .cls-3 {
        fill: rgba(255, 255, 255, .55);
        stroke: url(#_Безымянный_градиент_12);
        stroke-miterlimit: 11.34;
        stroke-width: 1.28px;
      }
    </style>
    <linearGradient id="_Безымянный_градиент_12" data-name="Безымянный градиент 12" x1="0" y1="14.69" x2="29.21" y2="14.69" gradientUnits="userSpaceOnUse">
      <stop offset="0" stop-color="#c5a059"/>
      <stop offset=".5" stop-color="#e8d089"/>
      <stop offset="1" stop-color="#c5a059"/>
    </linearGradient>
  </defs>
  <g id="_Слой_1-2" data-name="Слой 1">
    <g>
      <ellipse class="cls-3" cx="14.61" cy="14.69" rx="13.97" ry="14.05"/>
      <g>
        <g>
          <path class="cls-2" d="M13.47,11.45h-.61c.01-2.43.09-5.31.1-5.34h.61s-.08,2.92-.09,5.34Z"/>
          <polygon class="cls-2" points="12.13 11.14 13.17 12.87 14.26 11.17 12.13 11.14"/>
        </g>
        <path class="cls-2" d="M19.68,10.47c-.23-.3-.45-.6-.67-.9-.06-.08-.06-.08,0-.15.1-.12.21-.24.31-.36.03-.03.03-.05.01-.09-.21-.57-.59-1-1.04-1.37-.38-.32-.79-.58-1.24-.77-.13-.05-.26-.1-.4-.12-.05-.01-.11-.04-.15-.03-.04.02-.05.09-.07.14-.13.28-.21.58-.27.89,0,.04-.02.06-.06.06-.44-.02-.88-.03-1.32.02-.1.01-.2.03-.3.05-.04,0-.05.03-.05.07.01.32.04.65.08.97.1.85.33,2.53.36,2.71.02.11.06.31.22.4.1.06.26.12.41.09.12-.03.16-.06.16-.06,0,0-.03.3.09.47.3.47.84.45,1,.43.25-.04.54-.23.64-.34.03-.04.24-.22.34-.33.2-.21.36-.39.57-.58.38-.35.79-.66,1.19-.98.06-.05.12-.09.18-.14.03-.02.04-.04.01-.08ZM18.99,10.44c-.09.07-.19.14-.28.22-.38.3-.75.61-1.08.97-.02.02-.41.45-.49.54-.09.1-.24.31-.58.3-.07,0-.25-.06-.33-.12-.1-.07-.07-.53-.07-.55.06-.4.12-.81.18-1.21,0-.04,0-.05-.04-.06-.13-.02-.25-.04-.38-.07-.05,0-.06,0-.06.05-.02.15-.1.74-.13.9,0,.03-.02.04-.05.07-.06.07-.23.07-.3-.02-.02-.03-.05-.07-.06-.11-.03-.26-.07-.53-.1-.79-.1-.73-.2-1.46-.28-2.19,0-.05,0-.06.05-.07.35-.02.69-.01,1.04,0,.04,0,.04.02.04.05-.03.3-.05.59-.07.89,0,.09,0,.09.07.1.11,0,.23.02.34.03.04,0,.06,0,.06-.05.02-.32.05-.63.08-.95.03-.36.1-.7.2-1.04.01-.04.03-.04.06-.03.45.18.85.44,1.23.76.27.23.52.5.7.82.02.03.02.05,0,.08-.34.39-.66.8-1,1.18-.03.03-.02.05,0,.08.09.09.18.19.27.29.03.03.05.04.08,0,.16-.19.33-.39.49-.58.03-.03.04-.03.06,0,.11.15.22.3.34.45.02.03.02.04,0,.06Z"/>
        <g>
          <path class="cls-2" d="M20.5,21.63c-.07,0-.13-.04-.18-.09l-1.06-1.07s-.03-.11-.02-.16.03-.1.07-.14c.04-.04.09-.06.14-.07.05,0,.11,0,.16.02l.87.88,3.01-3.01s.1-.03.16-.02c.05,0,.1.04.14.07.04.04.06.09.07.14,0,.05,0,.11-.02.16l-3.17,3.2c-.04.05-.11.08-.18.09Z"/>
          <path class="cls-2" d="M21.03,23.67c-.57,0-1.12-.15-1.61-.45-.49-.29-.89-.71-1.16-1.21-.21-.37-.34-.79-.38-1.21-.06-.62.05-1.25.34-1.81.29-.56.73-1.02,1.28-1.32.37-.21.78-.34,1.2-.38.42-.05.85,0,1.25.12.04,0,.07.02.1.04.03.02.06.05.07.08.02.03.03.07.04.1,0,.04,0,.07,0,.11-.01.04-.03.07-.05.1-.02.03-.05.05-.09.07-.03.02-.07.02-.11.03-.04,0-.07,0-.11-.02-.34-.1-.7-.14-1.06-.1-.35.04-.69.14-1,.32-.3.17-.56.39-.78.65-.22.27-.39.58-.49.92-.1.34-.13.69-.09,1.04.04.35.14.7.31,1.01.16.3.38.57.65.78.27.22.58.39.91.49.33.1.68.13,1.03.09.35-.04.69-.14,1-.32.3-.17.56-.39.78-.65.22-.27.39-.58.48-.92.1-.34.13-.69.09-1.04,0-.04,0-.07.01-.11.01-.04.03-.07.05-.1.02-.03.05-.05.08-.07.03-.02.07-.03.1-.03.04,0,.07,0,.11.01.03.01.07.03.1.05.03.02.05.05.07.08.02.03.03.07.03.1.06.62-.06,1.25-.34,1.81-.29.56-.73,1.01-1.28,1.32-.37.22-.79.35-1.22.4h-.33Z"/>
        </g>
        <path class="cls-1" d="M9.43,9.44c0-.13.12-.24.26-.24s.26.11.26.24v4.4c0,.13-.12.24-.26.24h-3.07c-.14,0-.26-.11-.26-.24v-7.18c0-.14.06-.27.16-.37h0c.1-.09.24-.15.39-.15h2.47c.15,0,.29.06.39.15h0c.1.09.16.22.16.37v.61c0,.13-.12.24-.26.24s-.26-.11-.26-.24v-.61s0-.02-.01-.03h0s-.02-.01-.03-.01h-2.47s-.02,0-.03.01h0s-.01.02-.01.03v6.94h2.55v-4.16h0ZM9.43,19.32l-3.04-5.38c-.07-.12-.02-.26.11-.32.04-.02.08-.03.12-.03h0s13.45,0,13.45,0c.14,0,.26.11.26.24,0,0,0,.02,0,.03-.07,2.87-1.59,3.68-2.86,4.36-.75.4-1.4.74-1.52,1.48h0c-.05.29-.02.62.08,1,.1.39.28.83.55,1.31.06.12.01.26-.12.32-.04.02-.08.03-.12.03h-8.12c-.14,0-.26-.11-.26-.24,0-.05.01-.09.04-.13l1.44-2.67h0ZM7.05,14.08l2.9,5.13c.04.07.04.15,0,.22l-1.32,2.45h7.29c-.18-.38-.32-.74-.41-1.07-.12-.44-.14-.83-.09-1.18h0c.16-.97.91-1.37,1.78-1.83,1.13-.6,2.46-1.31,2.6-3.73H7.05ZM9.72,19.56c-.14,0-.26-.11-.26-.24s.12-.24.26-.24h2.83c.14,0,.26.11.26.24s-.12.24-.26.24h-2.83ZM8.54,7.61c.4,0,.73.3.73.68s-.33.68-.73.68-.73-.3-.73-.68c0-.37.33-.68.73-.68h0ZM9.27,8.53c-.14,0-.26-.11-.26-.24s.12-.24.26-.24h1.75c.14,0,.26.11.26.24s-.12.24-.26.24h-1.75Z"/>
      </g>
    </g>
  </g>
</svg>