<?xml version="1.0" encoding="UTF-8"?>
<svg id="Ribbon" xmlns="http://www.w3.org/2000/svg" xmlns:xlink="http://www.w3.org/1999/xlink" viewBox="0 0 1417.32 1417.32">
  <defs>
    <style>
      .cls-1 {
        fill: url(#_Безымянный_градиент_118);
      }

      .cls-2 {
        fill: #102437;
      }

      .cls-3 {
        fill: url(#_Новый_образец_градиента_4-2);
      }

      .cls-4 {
        fill: #01a5c2;
      }

      .cls-5 {
        fill: #223362;
      }

      .cls-6 {
        fill: url(#_Новый_образец_градиента_4);
      }

      .cls-7 {
        fill: url(#_Новый_образец_градиента_2);
      }
    </style>
    <linearGradient id="_Безымянный_градиент_118" data-name="Безымянный градиент 118" x1="158.13" y1="484.34" x2="906.72" y2="996" gradientUnits="userSpaceOnUse">
      <stop offset="0" stop-color="#1fa7c7"/>
      <stop offset=".22" stop-color="#6cc5d5"/>
      <stop offset=".5" stop-color="#1fa7c7"/>
      <stop offset="1" stop-color="#0080b7"/>
    </linearGradient>
    <linearGradient id="_Новый_образец_градиента_2" data-name="Новый образец градиента 2" x1="181.66" y1="426.31" x2="618.76" y2="895.08" gradientUnits="userSpaceOnUse">
      <stop offset="0" stop-color="#0395c2"/>
      <stop offset=".25" stop-color="#5bc1d4"/>
      <stop offset=".53" stop-color="#0395c2"/>
      <stop offset="1" stop-color="#0075ae"/>
    </linearGradient>
    <linearGradient id="_Новый_образец_градиента_4" data-name="Новый образец градиента 4" x1="1235.8" y1="462.65" x2="802.78" y2="735.33" gradientUnits="userSpaceOnUse">
      <stop offset="0" stop-color="#145f92"/>
      <stop offset=".22" stop-color="#3497be"/>
      <stop offset=".5" stop-color="#145f92"/>
      <stop offset="1" stop-color="#233464"/>
    </linearGradient>
    <linearGradient id="_Новый_образец_градиента_4-2" data-name="Новый образец градиента 4" x1="1170.97" y1="503.41" x2="760.42" y2="814.9" xlink:href="#_Новый_образец_градиента_4"/>
  </defs>
  <rect class="cls-2" width="1417.32" height="1417.32" rx="347.6" ry="347.6"/>
  <g>
    <polygon class="cls-5" points="371.28 712.52 145.31 803.22 418.88 803.22 371.28 712.52"/>
    <path class="cls-4" d="M578.33,594.36l7.15,13.11s289.02-108.6,561.7-142.3c0,0-22.13-52.43-132.43-30.64s-436.43,159.83-436.43,159.83Z"/>
    <path class="cls-4" d="M841.82,450.87s38.81-84.37,146.04-92.74h131.74l-19.91,40.14s-34.21-3.06-72.51,2.55c-38.3,5.62-185.36,50.04-185.36,50.04Z"/>
    <path class="cls-1" d="M495.94,948.92c-36.8-67.56-309.4-589.45-309.4-589.45l134.43-1.28s52.47-3.06,94.98,35.62c43.54,39.61,68.68,92.81,70.98,95.87l159.32,305.36s86.72,210.38,206.89,66.89l-47.49,93.11c-9.02,15.91-17.02,31.49-40,54.13-22.98,22.64-39.74,31.66-39.74,31.66,0,0-26.21,17.36-57.53,18.21s-54.47-2.21-68.09-7.83c0,0-60.77-22.3-104.34-102.3Z"/>
    <path class="cls-7" d="M600.29,1051.22c13.62,5.62,36.77,8.68,68.08,7.83,31.32-.85,57.53-18.21,57.53-18.21,0,0,16.77-9.02,39.74-31.66,22.98-22.64,30.98-38.21,40-54.13l19.04-37.33h0c-136.62,146.16-290.27-119.61-290.27-119.61,0,0-144-283.91-204.26-351.32-60.26-67.4-143.62-87.32-143.62-87.32,0,0,272.6,521.89,309.4,589.45,43.57,80,104.34,102.3,104.34,102.3Z"/>
    <path class="cls-6" d="M652.8,809.12l91.99-173.4,3.06-5.81-43.15,12.26-50.43,95.68-53.49-100.72,53.87-18.26s334.7-116.43,617.35-133.28c0,0-35.99,165.45-218.28,317.11l-166.72.51-33.87,58.72s-99.85,141.29-200.33-52.81Z"/>
    <path class="cls-3" d="M747.86,629.92l-3.06,5.81-91.99,173.4c100.49,194.11,196.16,60.3,196.16,60.3l38.04-66.21,145.77-.45c125.19-123.34,179.5-271.98,179.5-271.98-98.81-9.96-464.43,99.13-464.43,99.13Z"/>
  </g>
</svg>