<?xml version="1.0" encoding="UTF-8"?>
<svg id="_Слой_2" data-name="Слой 2" xmlns="http://www.w3.org/2000/svg" xmlns:xlink="http://www.w3.org/1999/xlink" viewBox="0 0 37.65 35.16">
  <defs>
    <style>
      .cls-1 {
        fill: url(#_Безымянный_градиент_4-30);
      }

      .cls-2 {
        fill: url(#_Безымянный_градиент_4-25);
      }

      .cls-3 {
        fill: url(#_Безымянный_градиент_4-14);
      }

      .cls-4 {
        fill: url(#_Безымянный_градиент_4-27);
      }

      .cls-5 {
        fill: url(#_Безымянный_градиент_4);
      }

      .cls-6 {
        fill: url(#_Безымянный_градиент_4-23);
      }

      .cls-7 {
        fill: url(#_Безымянный_градиент_4-24);
      }

      .cls-8 {
        fill: url(#_Безымянный_градиент_4-3);
      }

      .cls-9 {
        fill: url(#_Безымянный_градиент_4-12);
      }

      .cls-10 {
        fill: url(#_Безымянный_градиент_4-22);
      }

      .cls-11 {
        fill: url(#_Безымянный_градиент_4-5);
      }

      .cls-12 {
        fill: url(#_Безымянный_градиент_4-15);
      }

      .cls-13 {
        fill: url(#_Безымянный_градиент_4-4);
      }

      .cls-14 {
        fill: url(#_Безымянный_градиент_4-2);
      }

      .cls-15 {
        fill: url(#_Безымянный_градиент_4-10);
      }

      .cls-16 {
        fill: url(#_Безымянный_градиент_4-9);
      }

      .cls-17 {
        fill: url(#_Безымянный_градиент_4-17);
      }

      .cls-18 {
        fill: url(#_Безымянный_градиент_4-13);
      }

      .cls-19 {
        fill: url(#_Безымянный_градиент_4-19);
      }

      .cls-20 {
        fill: url(#_Безымянный_градиент_4-6);
      }

      .cls-21 {
        fill: url(#_Безымянный_градиент_4-21);
      }

      .cls-22 {
        fill: url(#_Безымянный_градиент_4-7);
      }

      .cls-23 {
        fill: url(#_Безымянный_градиент_4-20);
      }

      .cls-24 {
        fill: url(#_Безымянный_градиент_4-11);
      }

      .cls-25 {
        fill: url(#_Безымянный_градиент_4-16);
      }

      .cls-26 {
        fill: url(#_Безымянный_градиент_4-18);
      }

      .cls-27 {
        fill: url(#_Безымянный_градиент_4-26);
      }

      .cls-28 {
        fill: url(#_Безымянный_градиент_4-28);
      }

      .cls-29 {
        fill: url(#_Безымянный_градиент_4-29);
      }

      .cls-30 {
        fill: url(#_Безымянный_градиент_4-8);
      }
    </style>
    <linearGradient id="_Безымянный_градиент_4" data-name="Безымянный градиент 4" x1="6.74" y1="17.58" x2="30.92" y2="17.58" gradientUnits="userSpaceOnUse">
      <stop offset="0" stop-color="#d2ba69"/>
      <stop offset=".31" stop-color="#ebd683"/>
      <stop offset=".4" stop-color="#e3cd7b"/>
      <stop offset=".53" stop-color="#d2ba69"/>
      <stop offset="1" stop-color="#bea453"/>
    </linearGradient>
    <linearGradient id="_Безымянный_градиент_4-2" data-name="Безымянный градиент 4" x1="0" y1="17.58" x2="37.65" y2="17.58" xlink:href="#_Безымянный_градиент_4"/>
    <linearGradient id="_Безымянный_градиент_4-3" data-name="Безымянный градиент 4" x1="4.96" y1="26.72" x2="8.95" y2="26.72" xlink:href="#_Безымянный_градиент_4"/>
    <linearGradient id="_Безымянный_градиент_4-4" data-name="Безымянный градиент 4" x1="7.68" y1="29.11" x2="11.57" y2="29.11" xlink:href="#_Безымянный_градиент_4"/>
    <linearGradient id="_Безымянный_градиент_4-5" data-name="Безымянный градиент 4" x1="11.23" y1="30.98" x2="14.57" y2="30.98" xlink:href="#_Безымянный_градиент_4"/>
    <linearGradient id="_Безымянный_градиент_4-6" data-name="Безымянный градиент 4" x1="15.46" y1="31.74" x2="18.16" y2="31.74" xlink:href="#_Безымянный_градиент_4"/>
    <linearGradient id="_Безымянный_градиент_4-7" data-name="Безымянный градиент 4" x1="19.25" y1="31.95" x2="20.04" y2="31.95" xlink:href="#_Безымянный_градиент_4"/>
    <linearGradient id="_Безымянный_градиент_4-8" data-name="Безымянный градиент 4" x1="21.32" y1="31.49" x2="23.73" y2="31.49" xlink:href="#_Безымянный_градиент_4"/>
    <linearGradient id="_Безымянный_градиент_4-9" data-name="Безымянный градиент 4" x1="24.4" y1="30.56" x2="26.57" y2="30.56" xlink:href="#_Безымянный_градиент_4"/>
    <linearGradient id="_Безымянный_градиент_4-10" data-name="Безымянный градиент 4" x1="26.23" y1="29.01" x2="30.12" y2="29.01" xlink:href="#_Безымянный_градиент_4"/>
    <linearGradient id="_Безымянный_градиент_4-11" data-name="Безымянный градиент 4" x1="28.74" y1="26.61" x2="32.73" y2="26.61" xlink:href="#_Безымянный_градиент_4"/>
    <linearGradient id="_Безымянный_градиент_4-12" data-name="Безымянный градиент 4" x1="4.87" y1="9.3" x2="9.12" y2="9.3" xlink:href="#_Безымянный_градиент_4"/>
    <linearGradient id="_Безымянный_градиент_4-13" data-name="Безымянный градиент 4" x1="7.93" y1="7.43" x2="11.63" y2="7.43" xlink:href="#_Безымянный_градиент_4"/>
    <linearGradient id="_Безымянный_градиент_4-14" data-name="Безымянный градиент 4" x1="10.13" y1="5.74" x2="13.74" y2="5.74" xlink:href="#_Безымянный_градиент_4"/>
    <linearGradient id="_Безымянный_градиент_4-15" data-name="Безымянный градиент 4" x1="13.53" y1="4.5" x2="16.73" y2="4.5" xlink:href="#_Безымянный_градиент_4"/>
    <linearGradient id="_Безымянный_градиент_4-16" data-name="Безымянный градиент 4" x1="16.54" y1="3.88" x2="19.11" y2="3.88" xlink:href="#_Безымянный_градиент_4"/>
    <linearGradient id="_Безымянный_градиент_4-17" data-name="Безымянный градиент 4" x1="2.75" y1="17.34" x2="4.77" y2="17.34" xlink:href="#_Безымянный_градиент_4"/>
    <linearGradient id="_Безымянный_градиент_4-18" data-name="Безымянный градиент 4" x1="32.9" y1="17.34" x2="34.92" y2="17.34" xlink:href="#_Безымянный_градиент_4"/>
    <linearGradient id="_Безымянный_градиент_4-19" data-name="Безымянный градиент 4" x1="11.25" y1="22.78" x2="13.9" y2="22.78" xlink:href="#_Безымянный_градиент_4"/>
    <linearGradient id="_Безымянный_градиент_4-20" data-name="Безымянный градиент 4" x1="14.26" y1="22.78" x2="17.58" y2="22.78" xlink:href="#_Безымянный_градиент_4"/>
    <linearGradient id="_Безымянный_градиент_4-21" data-name="Безымянный градиент 4" x1="17.96" y1="22.79" x2="20.29" y2="22.79" xlink:href="#_Безымянный_градиент_4"/>
    <linearGradient id="_Безымянный_градиент_4-22" data-name="Безымянный градиент 4" x1="20.43" y1="22.78" x2="23.76" y2="22.78" xlink:href="#_Безымянный_градиент_4"/>
    <linearGradient id="_Безымянный_градиент_4-23" data-name="Безымянный градиент 4" x1="24.13" y1="22.79" x2="26.46" y2="22.79" xlink:href="#_Безымянный_градиент_4"/>
    <linearGradient id="_Безымянный_градиент_4-24" data-name="Безымянный градиент 4" x1="8.44" y1="15.54" x2="14.74" y2="15.54" xlink:href="#_Безымянный_градиент_4"/>
    <linearGradient id="_Безымянный_градиент_4-25" data-name="Безымянный градиент 4" x1="14.8" y1="15.59" x2="22.18" y2="15.59" xlink:href="#_Безымянный_градиент_4"/>
    <linearGradient id="_Безымянный_градиент_4-26" data-name="Безымянный градиент 4" x1="21.92" y1="16.96" x2="28.95" y2="16.96" xlink:href="#_Безымянный_градиент_4"/>
    <linearGradient id="_Безымянный_градиент_4-27" data-name="Безымянный градиент 4" x1="20.07" y1="3.66" x2="23.18" y2="3.66" xlink:href="#_Безымянный_градиент_4"/>
    <linearGradient id="_Безымянный_градиент_4-28" data-name="Безымянный градиент 4" x1="23.83" y1="4.72" x2="27.03" y2="4.72" xlink:href="#_Безымянный_градиент_4"/>
    <linearGradient id="_Безымянный_градиент_4-29" data-name="Безымянный градиент 4" x1="26.12" y1="6.97" x2="29.65" y2="6.97" xlink:href="#_Безымянный_градиент_4"/>
    <linearGradient id="_Безымянный_градиент_4-30" data-name="Безымянный градиент 4" x1="29.4" y1="9.67" x2="32.01" y2="9.67" xlink:href="#_Безымянный_градиент_4"/>
  </defs>
  <g id="_Слой_1-2" data-name="Слой 1">
    <g>
      <path class="cls-5" d="M18.83,28.87c-6.67,0-12.09-5.07-12.09-11.29s5.42-11.29,12.09-11.29,12.09,5.07,12.09,11.29-5.42,11.29-12.09,11.29M18.83,6.72c-6.42,0-11.63,4.87-11.63,10.86s5.22,10.87,11.63,10.87,11.64-4.87,11.64-10.87-5.22-10.86-11.64-10.86"/>
      <path class="cls-14" d="M18.83,35.16C8.45,35.16,0,27.28,0,17.58S8.45,0,18.83,0s18.83,7.89,18.83,17.58-8.45,17.58-18.83,17.58M18.83.43C8.7.43.46,8.12.46,17.58s8.24,17.15,18.37,17.15,18.37-7.7,18.37-17.15S28.96.43,18.83.43"/>
      <path class="cls-8" d="M5.41,27.88c-.17-.21-.3-.43-.37-.67-.07-.24-.1-.48-.07-.72.02-.24.1-.47.22-.68.12-.21.29-.4.51-.56.22-.16.45-.27.7-.32.25-.06.5-.07.76-.04.26.04.5.11.73.24.23.12.43.29.61.5.14.17.25.35.33.54.08.19.12.38.12.55l-.56.1c0-.14-.03-.28-.08-.42-.06-.14-.14-.28-.25-.41-.13-.15-.27-.27-.43-.36-.16-.09-.33-.14-.51-.17-.18-.02-.35-.01-.53.03-.17.04-.34.12-.49.23-.15.11-.27.24-.36.39-.09.15-.14.3-.16.47-.02.17,0,.33.05.5.05.17.14.33.27.48.11.13.23.23.36.32.14.09.28.14.42.18l-.24.49c-.18-.05-.36-.13-.54-.24-.18-.11-.35-.26-.49-.43"/>
      <polygon class="cls-13" points="7.68 29.95 9.95 27.14 11.57 28.28 11.25 28.67 10.11 27.87 9.45 28.68 10.55 29.45 10.23 29.85 9.13 29.07 8.47 29.89 9.61 30.7 9.29 31.09 7.68 29.95"/>
      <path class="cls-11" d="M11.23,32.12l1.43-3.26,1.09.42c.23.09.42.21.56.35s.22.3.26.48c.03.18,0,.37-.08.57-.07.17-.17.31-.3.41-.13.11-.27.18-.43.22-.16.04-.34.04-.53,0l.56,1.78-.7-.27-.48-1.68-.25-.09-.56,1.28-.55-.21ZM12.53,30.62l.37.14c.15.06.3.09.43.08.13,0,.24-.04.34-.1.1-.06.17-.15.22-.27.08-.18.07-.34-.01-.49-.09-.15-.25-.27-.48-.36l-.37-.14-.5,1.13Z"/>
      <polygon class="cls-20" points="16.01 33.51 16.48 30.52 15.46 30.38 15.54 29.89 18.16 30.25 18.08 30.74 17.07 30.6 16.6 33.59 16.01 33.51"/>
      <polygon class="cls-22" points="19.45 33.72 19.25 30.2 19.85 30.17 20.04 33.69 19.45 33.72"/>
      <polygon class="cls-30" points="22.25 33.43 21.32 30.02 23.3 29.55 23.43 30.02 21.87 30.39 21.99 30.23 22.35 31.53 22.14 31.38 23.6 31.04 23.73 31.51 22.27 31.86 22.37 31.64 22.83 33.29 22.25 33.43"/>
      <polygon class="cls-16" points="26.03 32.27 24.4 29.09 24.94 28.85 26.57 32.02 26.03 32.27"/>
      <polygon class="cls-15" points="28.51 30.99 26.23 28.18 27.85 27.04 28.17 27.43 27.03 28.23 27.69 29.05 28.78 28.27 29.1 28.66 28 29.44 28.67 30.26 29.81 29.45 30.12 29.84 28.51 30.99"/>
      <path class="cls-24" d="M31.73,28.4l-2.99-2.15.59-.72c.16-.2.35-.35.57-.47.22-.12.45-.19.69-.22.24-.03.48-.02.72.04.24.06.47.17.68.32.21.15.38.33.5.53.12.2.2.42.23.64.03.23.01.45-.05.68-.07.22-.18.44-.34.64l-.59.72ZM31.67,27.65l.19-.23c.12-.14.2-.29.24-.45.04-.16.06-.32.03-.47-.02-.16-.08-.31-.17-.45-.09-.14-.21-.27-.36-.38-.15-.11-.31-.19-.48-.23-.17-.04-.34-.06-.51-.04-.17.02-.33.07-.48.15-.15.08-.29.19-.4.33l-.19.23,2.14,1.54Z"/>
      <polygon class="cls-9" points="7.52 11.22 4.87 9.36 5.28 8.86 6.32 9.59 7.11 8.61 6.06 7.88 6.47 7.38 9.12 9.24 8.71 9.74 7.55 8.93 6.77 9.91 7.93 10.72 7.52 11.22"/>
      <path class="cls-18" d="M11.63,7.21l-.56.44-.71-.36-1.01.8.28.7-.54.43-1.15-3.14.54-.43,3.15,1.57ZM9.84,7.02l-1.14-.6.45,1.15.69-.55Z"/>
      <polygon class="cls-3" points="11.68 7.24 10.13 4.54 10.72 4.24 12.01 6.49 13.47 5.75 13.74 6.21 11.68 7.24"/>
      <path class="cls-12" d="M16.73,5.38l-.7.19-.49-.6-1.27.35-.05.75-.68.19.31-3.31.68-.18,2.2,2.62ZM15.18,4.53l-.78-.98-.09,1.22.87-.24Z"/>
      <polygon class="cls-25" points="16.78 5.43 16.54 2.37 17.2 2.32 17.41 4.86 19.07 4.75 19.11 5.27 16.78 5.43"/>
      <path class="cls-17" d="M4.77,17.34c0,.52-.45.94-1.01.94s-1.01-.42-1.01-.94.45-.94,1.01-.94,1.01.42,1.01.94"/>
      <path class="cls-26" d="M34.92,17.34c0,.52-.45.94-1.01.94s-1.01-.42-1.01-.94.45-.94,1.01-.94,1.01.42,1.01.94"/>
      <polygon class="cls-19" points="11.25 24.33 11.25 21.23 11.92 21.23 11.92 22.45 13.23 22.45 13.23 21.23 13.9 21.23 13.9 24.33 13.23 24.33 13.23 22.97 11.92 22.97 11.92 24.33 11.25 24.33"/>
      <path class="cls-23" d="M17.58,24.33h-.73l-.29-.7h-1.32l-.27.7h-.71l1.29-3.1h.71l1.33,3.1ZM16.35,23.1l-.46-1.15-.45,1.15h.91Z"/>
      <polygon class="cls-21" points="17.96 24.33 17.96 21.26 18.63 21.26 18.63 23.81 20.29 23.81 20.29 24.33 17.96 24.33"/>
      <path class="cls-10" d="M23.76,24.33h-.73l-.29-.7h-1.32l-.27.7h-.71l1.29-3.1h.71l1.33,3.1ZM22.53,23.1l-.46-1.15-.45,1.15h.91Z"/>
      <polygon class="cls-6" points="24.13 24.33 24.13 21.26 24.8 21.26 24.8 23.81 26.46 23.81 26.46 24.33 24.13 24.33"/>
      <path class="cls-7" d="M14.74,12.18s-.07,0-.12-.01c-.06,0-.1-.01-.12-.01-.18,0-.29.24-.32.73v4.52c0,.83-.21,1.54-.64,2.12-.44.6-1.05.97-1.82,1.1-.47.08-.82.11-1.04.08-.37-.05-.58-.07-.65-.08-.23-.04-.44-.1-.62-.19-.39-.38-.65-.79-.79-1.23-.12-.36-.18-.85-.18-1.45,0-.26.12-.76.36-1.48h.28c-.04.12-.06.31-.06.56,0,.68.19,1.2.57,1.56.37.35.88.53,1.53.53.59,0,1.01-.04,1.27-.13.29-.11.63-.36,1.03-.75.12-.12.22-.27.28-.45l-.77-5.76c.06-.19.22-.46.48-.82.26-.36.46-.57.61-.64.11,0,.26.27.46.79.18.49.26.83.26,1.02"/>
      <path class="cls-2" d="M22.18,19.4h-1.21c-.28,0-.53-.16-.76-.48-.21-.29-.32-.59-.32-.89.03-.58.02-1.44-.04-2.59-.29.66-.59,1.31-.88,1.96-.57,1.19-.99,1.81-1.26,1.86-.59.11-1.26.17-2.03.17-.52,0-.81-.06-.87-.17.08-.07.65-.4,1.73-.99.88-.49,1.33-.87,1.33-1.12,0-.51-.22-1.07-.67-1.69-.28-.38-.7-.83-1.26-1.37-.45-.44-.67-.69-.67-.75,0-.19.05-.46.15-.84.1-.37.2-.64.29-.8.38.36.98.87,1.8,1.52-.06.03-.22.04-.48.04-.09,0-.16.02-.22.06.7,1.07,1.1,1.76,1.19,2.08.09.32.24.78.45,1.39.56-.74.93-1.47,1.1-2.21.1-.47.2-.94.3-1.41.21-.79.42-1.24.63-1.33v5.13c0,.39.41.58,1.23.58.21,0,.37-.02.47-.05v1.87Z"/>
      <path class="cls-27" d="M28.95,16.09c0,.33-.21.79-.62,1.39-.08,0-.35,0-.81,0-.14,0-.79.32-1.97.95-1.17.64-2.05.96-2.64.97l-1,.02v-1.87s.07,0,.13.01c.06,0,.1.01.13.01h.75c.4,0,.87-.08,1.39-.23.57-.17,1-.37,1.28-.6-.97-.45-1.69-.67-2.15-.67-.16,0-.32.09-.47.26-.18.2-.3.3-.34.32l-.1-.02c-.1-.07-.14-.2-.14-.39s.27-.63.8-1.28c.22-.27.54-.4.95-.4,1.89.78,3.47,1.18,4.76,1.18.03.07.04.2.04.38"/>
      <path class="cls-4" d="M21,1.97h-.78s-.33,2.15,0,2.79c.15.29.78.68,1.59.56.81-.12,1.33-.75,1.37-1.34.04-.59-.2-.41-.67.16-.48.57-1.5.73-1.5-.12V1.97Z"/>
      <path class="cls-28" d="M26.04,3.13c.4,0,1.11.23.97,1.17-.14.95-1.38,2.23-2.34,1.96-.97-.27-1.09-1.15-.39-1.04.7.11,1.93.43,1.57-.95-.34-1.29.19-1.15.19-1.15"/>
      <path class="cls-29" d="M26.79,6.5s.72.11,1.27-.61c.56-.72,1.14-.69,1.49-.27.34.42-.3,1.07-.6,1.63-.3.57.02,1.91-.94,1.11-.95-.79-.85-.82-1.54-1.14-.69-.32-.26-.8.32-.73"/>
      <path class="cls-1" d="M31.96,8.05c.15.3,0,.64-.87,1.19-.88.54-.8.89-.29,1.41.5.52.79,1.49-.37.57-1.16-.92-1.38-1.46-.42-2.45.96-.99,1.65-1.34,1.95-.72"/>
    </g>
  </g>
</svg>