<?xml version="1.0" encoding="UTF-8"?>
<svg id="_Слой_2" data-name="Слой 2" xmlns="http://www.w3.org/2000/svg" xmlns:xlink="http://www.w3.org/1999/xlink" viewBox="0 0 38.65 36.16">
  <defs>
    <style>
      .cls-1 {
        fill: url(#_Безымянный_градиент_59-13);
        stroke: url(#_Безымянный_градиент_59-14);
      }

      .cls-1, .cls-2, .cls-3, .cls-4, .cls-5, .cls-6, .cls-7, .cls-8, .cls-9, .cls-10, .cls-11, .cls-12, .cls-13, .cls-14, .cls-15, .cls-16, .cls-17, .cls-18, .cls-19, .cls-20, .cls-21, .cls-22, .cls-23, .cls-24, .cls-25, .cls-26, .cls-27, .cls-28, .cls-29, .cls-30 {
        stroke-miterlimit: 10;
      }

      .cls-2 {
        fill: url(#_Безымянный_градиент_59-3);
        stroke: url(#_Безымянный_градиент_59-4);
      }

      .cls-3 {
        fill: url(#_Безымянный_градиент_59-57);
        stroke: url(#_Безымянный_градиент_59-58);
      }

      .cls-4 {
        fill: url(#_Безымянный_градиент_59-51);
        stroke: url(#_Безымянный_градиент_59-52);
      }

      .cls-5 {
        fill: url(#_Безымянный_градиент_59-37);
        stroke: url(#_Безымянный_градиент_59-38);
      }

      .cls-6 {
        fill: url(#_Безымянный_градиент_59-29);
        stroke: url(#_Безымянный_градиент_59-30);
      }

      .cls-7 {
        fill: url(#_Безымянный_градиент_59-41);
        stroke: url(#_Безымянный_градиент_59-42);
      }

      .cls-8 {
        fill: url(#_Безымянный_градиент_59-25);
        stroke: url(#_Безымянный_градиент_59-26);
      }

      .cls-9 {
        fill: url(#_Безымянный_градиент_59-47);
        stroke: url(#_Безымянный_градиент_59-48);
      }

      .cls-10 {
        fill: url(#_Безымянный_градиент_59-9);
        stroke: url(#_Безымянный_градиент_59-10);
      }

      .cls-11 {
        fill: url(#_Безымянный_градиент_59-21);
        stroke: url(#_Безымянный_градиент_59-22);
      }

      .cls-12 {
        fill: url(#_Безымянный_градиент_59-19);
        stroke: url(#_Безымянный_градиент_59-20);
      }

      .cls-13 {
        fill: url(#_Безымянный_градиент_59-7);
        stroke: url(#_Безымянный_градиент_59-8);
      }

      .cls-14 {
        fill: url(#_Безымянный_градиент_59-31);
        stroke: url(#_Безымянный_градиент_59-32);
      }

      .cls-15 {
        fill: url(#_Безымянный_градиент_59-35);
        stroke: url(#_Безымянный_градиент_59-36);
      }

      .cls-16 {
        fill: url(#_Безымянный_градиент_59-27);
        stroke: url(#_Безымянный_градиент_59-28);
      }

      .cls-17 {
        fill: url(#_Безымянный_градиент_59-17);
        stroke: url(#_Безымянный_градиент_59-18);
      }

      .cls-18 {
        fill: url(#_Безымянный_градиент_59-49);
        stroke: url(#_Безымянный_градиент_59-50);
      }

      .cls-19 {
        fill: url(#_Безымянный_градиент_59-23);
        stroke: url(#_Безымянный_градиент_59-24);
      }

      .cls-20 {
        fill: url(#_Безымянный_градиент_59-55);
        stroke: url(#_Безымянный_градиент_59-56);
      }

      .cls-21 {
        fill: url(#_Безымянный_градиент_59-43);
        stroke: url(#_Безымянный_градиент_59-44);
      }

      .cls-22 {
        fill: url(#_Безымянный_градиент_59-15);
        stroke: url(#_Безымянный_градиент_59-16);
      }

      .cls-23 {
        fill: url(#_Безымянный_градиент_59-5);
        stroke: url(#_Безымянный_градиент_59-6);
      }

      .cls-24 {
        fill: url(#_Безымянный_градиент_59-11);
        stroke: url(#_Безымянный_градиент_59-12);
      }

      .cls-25 {
        fill: url(#_Безымянный_градиент_59-39);
        stroke: url(#_Безымянный_градиент_59-40);
      }

      .cls-26 {
        fill: url(#_Безымянный_градиент_59-45);
        stroke: url(#_Безымянный_градиент_59-46);
      }

      .cls-27 {
        fill: url(#_Безымянный_градиент_59-53);
        stroke: url(#_Безымянный_градиент_59-54);
      }

      .cls-28 {
        fill: url(#_Безымянный_градиент_59-59);
        stroke: url(#_Безымянный_градиент_59-60);
      }

      .cls-29 {
        fill: url(#_Безымянный_градиент_59);
        stroke: url(#_Безымянный_градиент_59-2);
      }

      .cls-30 {
        fill: url(#_Безымянный_градиент_59-33);
        stroke: url(#_Безымянный_градиент_59-34);
      }
    </style>
    <linearGradient id="_Безымянный_градиент_59" data-name="Безымянный градиент 59" x1="7.24" y1="18.08" x2="31.42" y2="18.08" gradientUnits="userSpaceOnUse">
      <stop offset="0" stop-color="#c5a059"/>
      <stop offset=".5" stop-color="#e8d089"/>
      <stop offset="1" stop-color="#c5a059"/>
    </linearGradient>
    <linearGradient id="_Безымянный_градиент_59-2" data-name="Безымянный градиент 59" x1="6.74" x2="31.92" xlink:href="#_Безымянный_градиент_59"/>
    <linearGradient id="_Безымянный_градиент_59-3" data-name="Безымянный градиент 59" x1=".5" y1="18.08" x2="38.15" y2="18.08" xlink:href="#_Безымянный_градиент_59"/>
    <linearGradient id="_Безымянный_градиент_59-4" data-name="Безымянный градиент 59" x1="0" y1="18.08" x2="38.65" y2="18.08" xlink:href="#_Безымянный_градиент_59"/>
    <linearGradient id="_Безымянный_градиент_59-5" data-name="Безымянный градиент 59" x1="5.46" y1="27.22" x2="9.45" y2="27.22" xlink:href="#_Безымянный_градиент_59"/>
    <linearGradient id="_Безымянный_градиент_59-6" data-name="Безымянный градиент 59" x1="4.96" y1="27.26" x2="9.96" y2="27.26" xlink:href="#_Безымянный_градиент_59"/>
    <linearGradient id="_Безымянный_градиент_59-7" data-name="Безымянный градиент 59" x1="8.18" y1="29.61" x2="12.07" y2="29.61" xlink:href="#_Безымянный_градиент_59"/>
    <linearGradient id="_Безымянный_градиент_59-8" data-name="Безымянный градиент 59" x1="7.45" y1="29.61" x2="12.79" y2="29.61" xlink:href="#_Безымянный_градиент_59"/>
    <linearGradient id="_Безымянный_градиент_59-9" data-name="Безымянный градиент 59" x1="11.73" y1="31.48" x2="15.07" y2="31.48" xlink:href="#_Безымянный_градиент_59"/>
    <linearGradient id="_Безымянный_градиент_59-10" data-name="Безымянный градиент 59" x1="11.06" y1="31.58" x2="15.57" y2="31.58" xlink:href="#_Безымянный_градиент_59"/>
    <linearGradient id="_Безымянный_градиент_59-11" data-name="Безымянный градиент 59" x1="15.96" y1="32.24" x2="18.66" y2="32.24" xlink:href="#_Безымянный_градиент_59"/>
    <linearGradient id="_Безымянный_градиент_59-12" data-name="Безымянный градиент 59" x1="15.39" y1="32.24" x2="19.23" y2="32.24" xlink:href="#_Безымянный_градиент_59"/>
    <linearGradient id="_Безымянный_градиент_59-13" data-name="Безымянный градиент 59" x1="19.75" y1="32.45" x2="20.54" y2="32.45" xlink:href="#_Безымянный_градиент_59"/>
    <linearGradient id="_Безымянный_градиент_59-14" data-name="Безымянный градиент 59" x1="19.22" y1="32.45" x2="21.07" y2="32.45" xlink:href="#_Безымянный_градиент_59"/>
    <linearGradient id="_Безымянный_градиент_59-15" data-name="Безымянный градиент 59" x1="21.82" y1="31.99" x2="24.23" y2="31.99" xlink:href="#_Безымянный_градиент_59"/>
    <linearGradient id="_Безымянный_градиент_59-16" data-name="Безымянный градиент 59" x1="21.13" y1="31.99" x2="24.84" y2="31.99" xlink:href="#_Безымянный_градиент_59"/>
    <linearGradient id="_Безымянный_градиент_59-17" data-name="Безымянный градиент 59" x1="24.9" y1="31.06" x2="27.07" y2="31.06" xlink:href="#_Безымянный_градиент_59"/>
    <linearGradient id="_Безымянный_градиент_59-18" data-name="Безымянный градиент 59" x1="24.21" y1="31.06" x2="27.76" y2="31.06" xlink:href="#_Безымянный_градиент_59"/>
    <linearGradient id="_Безымянный_градиент_59-19" data-name="Безымянный градиент 59" x1="26.73" y1="29.51" x2="30.62" y2="29.51" xlink:href="#_Безымянный_градиент_59"/>
    <linearGradient id="_Безымянный_градиент_59-20" data-name="Безымянный градиент 59" x1="26.01" y1="29.51" x2="31.35" y2="29.51" xlink:href="#_Безымянный_градиент_59"/>
    <linearGradient id="_Безымянный_градиент_59-21" data-name="Безымянный градиент 59" x1="29.24" y1="27.11" x2="33.23" y2="27.11" xlink:href="#_Безымянный_градиент_59"/>
    <linearGradient id="_Безымянный_градиент_59-22" data-name="Безымянный градиент 59" x1="28.52" y1="27.2" x2="33.73" y2="27.2" xlink:href="#_Безымянный_градиент_59"/>
    <linearGradient id="_Безымянный_градиент_59-23" data-name="Безымянный градиент 59" x1="5.37" y1="9.8" x2="9.62" y2="9.8" xlink:href="#_Безымянный_градиент_59"/>
    <linearGradient id="_Безымянный_градиент_59-24" data-name="Безымянный градиент 59" x1="4.65" y1="9.8" x2="10.34" y2="9.8" xlink:href="#_Безымянный_градиент_59"/>
    <linearGradient id="_Безымянный_градиент_59-25" data-name="Безымянный градиент 59" x1="8.43" y1="7.93" x2="12.13" y2="7.93" xlink:href="#_Безымянный_градиент_59"/>
    <linearGradient id="_Безымянный_градиент_59-26" data-name="Безымянный градиент 59" x1="7.84" y1="8.05" x2="13.06" y2="8.05" xlink:href="#_Безымянный_градиент_59"/>
    <linearGradient id="_Безымянный_градиент_59-27" data-name="Безымянный градиент 59" x1="10.63" y1="6.24" x2="14.24" y2="6.24" xlink:href="#_Безымянный_градиент_59"/>
    <linearGradient id="_Безымянный_градиент_59-28" data-name="Безымянный градиент 59" x1="9.93" y1="6.24" x2="14.94" y2="6.24" xlink:href="#_Безымянный_градиент_59"/>
    <linearGradient id="_Безымянный_градиент_59-29" data-name="Безымянный градиент 59" x1="14.03" y1="5" x2="17.23" y2="5" xlink:href="#_Безымянный_градиент_59"/>
    <linearGradient id="_Безымянный_градиент_59-30" data-name="Безымянный градиент 59" x1="13.47" y1="5.06" x2="18.11" y2="5.06" xlink:href="#_Безымянный_градиент_59"/>
    <linearGradient id="_Безымянный_градиент_59-31" data-name="Безымянный градиент 59" x1="17.04" y1="4.38" x2="19.61" y2="4.38" xlink:href="#_Безымянный_градиент_59"/>
    <linearGradient id="_Безымянный_градиент_59-32" data-name="Безымянный градиент 59" x1="16.5" y1="4.38" x2="20.15" y2="4.38" xlink:href="#_Безымянный_градиент_59"/>
    <linearGradient id="_Безымянный_градиент_59-33" data-name="Безымянный градиент 59" x1="3.25" y1="17.84" x2="5.27" y2="17.84" xlink:href="#_Безымянный_градиент_59"/>
    <linearGradient id="_Безымянный_градиент_59-34" data-name="Безымянный градиент 59" x1="2.75" y1="17.84" x2="5.77" y2="17.84" xlink:href="#_Безымянный_градиент_59"/>
    <linearGradient id="_Безымянный_градиент_59-35" data-name="Безымянный градиент 59" x1="33.4" y1="17.84" x2="35.42" y2="17.84" xlink:href="#_Безымянный_градиент_59"/>
    <linearGradient id="_Безымянный_градиент_59-36" data-name="Безымянный градиент 59" x1="32.9" y1="17.84" x2="35.92" y2="17.84" xlink:href="#_Безымянный_градиент_59"/>
    <linearGradient id="_Безымянный_градиент_59-37" data-name="Безымянный градиент 59" x1="11.75" y1="23.28" x2="14.4" y2="23.28" xlink:href="#_Безымянный_градиент_59"/>
    <linearGradient id="_Безымянный_градиент_59-38" data-name="Безымянный градиент 59" x1="11.25" y1="23.28" x2="14.9" y2="23.28" xlink:href="#_Безымянный_градиент_59"/>
    <linearGradient id="_Безымянный_градиент_59-39" data-name="Безымянный градиент 59" x1="14.76" y1="23.28" x2="18.08" y2="23.28" xlink:href="#_Безымянный_градиент_59"/>
    <linearGradient id="_Безымянный_градиент_59-40" data-name="Безымянный градиент 59" x1="14.01" y1="23.21" x2="18.84" y2="23.21" xlink:href="#_Безымянный_градиент_59"/>
    <linearGradient id="_Безымянный_градиент_59-41" data-name="Безымянный градиент 59" x1="18.46" y1="23.29" x2="20.79" y2="23.29" xlink:href="#_Безымянный_градиент_59"/>
    <linearGradient id="_Безымянный_градиент_59-42" data-name="Безымянный градиент 59" x1="17.96" y1="23.29" x2="21.29" y2="23.29" xlink:href="#_Безымянный_градиент_59"/>
    <linearGradient id="_Безымянный_градиент_59-43" data-name="Безымянный градиент 59" x1="20.93" y1="23.28" x2="24.26" y2="23.28" xlink:href="#_Безымянный_градиент_59"/>
    <linearGradient id="_Безымянный_градиент_59-44" data-name="Безымянный градиент 59" x1="20.18" y1="23.21" x2="25.02" y2="23.21" xlink:href="#_Безымянный_градиент_59"/>
    <linearGradient id="_Безымянный_градиент_59-45" data-name="Безымянный градиент 59" x1="24.63" y1="23.29" x2="26.96" y2="23.29" xlink:href="#_Безымянный_градиент_59"/>
    <linearGradient id="_Безымянный_градиент_59-46" data-name="Безымянный градиент 59" x1="24.13" y1="23.29" x2="27.46" y2="23.29" xlink:href="#_Безымянный_градиент_59"/>
    <linearGradient id="_Безымянный_градиент_59-47" data-name="Безымянный градиент 59" x1="8.94" y1="16.04" x2="15.24" y2="16.04" xlink:href="#_Безымянный_градиент_59"/>
    <linearGradient id="_Безымянный_градиент_59-48" data-name="Безымянный градиент 59" x1="8.44" y1="16.04" x2="15.74" y2="16.04" xlink:href="#_Безымянный_градиент_59"/>
    <linearGradient id="_Безымянный_градиент_59-49" data-name="Безымянный градиент 59" x1="15.3" y1="16.09" x2="22.68" y2="16.09" xlink:href="#_Безымянный_градиент_59"/>
    <linearGradient id="_Безымянный_градиент_59-50" data-name="Безымянный градиент 59" x1="14.67" y1="15.94" x2="23.18" y2="15.94" xlink:href="#_Безымянный_градиент_59"/>
    <linearGradient id="_Безымянный_градиент_59-51" data-name="Безымянный градиент 59" x1="22.42" y1="17.46" x2="29.45" y2="17.46" xlink:href="#_Безымянный_градиент_59"/>
    <linearGradient id="_Безымянный_градиент_59-52" data-name="Безымянный градиент 59" x1="21.92" y1="17.47" x2="29.95" y2="17.47" xlink:href="#_Безымянный_градиент_59"/>
    <linearGradient id="_Безымянный_градиент_59-53" data-name="Безымянный градиент 59" x1="20.57" y1="4.16" x2="23.68" y2="4.16" xlink:href="#_Безымянный_градиент_59"/>
    <linearGradient id="_Безымянный_градиент_59-54" data-name="Безымянный градиент 59" x1="20.07" y1="4.16" x2="24.18" y2="4.16" xlink:href="#_Безымянный_градиент_59"/>
    <linearGradient id="_Безымянный_градиент_59-55" data-name="Безымянный градиент 59" x1="24.33" y1="5.22" x2="27.53" y2="5.22" xlink:href="#_Безымянный_градиент_59"/>
    <linearGradient id="_Безымянный_градиент_59-56" data-name="Безымянный градиент 59" x1="23.83" y1="5.22" x2="28.03" y2="5.22" xlink:href="#_Безымянный_градиент_59"/>
    <linearGradient id="_Безымянный_градиент_59-57" data-name="Безымянный градиент 59" x1="26.62" y1="7.47" x2="30.15" y2="7.47" xlink:href="#_Безымянный_градиент_59"/>
    <linearGradient id="_Безымянный_градиент_59-58" data-name="Безымянный градиент 59" x1="26.12" y1="7.47" x2="30.65" y2="7.47" xlink:href="#_Безымянный_градиент_59"/>
    <linearGradient id="_Безымянный_градиент_59-59" data-name="Безымянный градиент 59" x1="29.9" y1="10.17" x2="32.51" y2="10.17" xlink:href="#_Безымянный_градиент_59"/>
    <linearGradient id="_Безымянный_градиент_59-60" data-name="Безымянный градиент 59" x1="29.4" y1="10.17" x2="33.01" y2="10.17" xlink:href="#_Безымянный_градиент_59"/>
  </defs>
  <g id="_07_FRONT_ELEMENTS" data-name="07_FRONT_ELEMENTS">
    <g>
      <path class="cls-29" d="M19.33,29.37c-6.67,0-12.09-5.07-12.09-11.29s5.42-11.29,12.09-11.29,12.09,5.07,12.09,11.29-5.42,11.29-12.09,11.29M19.33,7.22c-6.42,0-11.63,4.87-11.63,10.86s5.22,10.87,11.63,10.87,11.64-4.87,11.64-10.87-5.22-10.86-11.64-10.86"/>
      <path class="cls-2" d="M19.33,35.66C8.95,35.66.5,27.78.5,18.08S8.95.5,19.33.5s18.83,7.89,18.83,17.58-8.45,17.58-18.83,17.58M19.33.93C9.2.93.96,8.62.96,18.08s8.24,17.15,18.37,17.15,18.37-7.7,18.37-17.15S29.46.93,19.33.93"/>
      <path class="cls-23" d="M5.91,28.38c-.17-.21-.3-.43-.37-.67-.07-.24-.1-.48-.07-.72.02-.24.1-.47.22-.68.12-.21.29-.4.51-.56.22-.16.45-.27.7-.32.25-.06.5-.07.76-.04.26.04.5.11.73.24.23.12.43.29.61.5.14.17.25.35.33.54.08.19.12.38.12.55l-.56.1c0-.14-.03-.28-.08-.42-.06-.14-.14-.28-.25-.41-.13-.15-.27-.27-.43-.36-.16-.09-.33-.14-.51-.17-.18-.02-.35-.01-.53.03-.17.04-.34.12-.49.23-.15.11-.27.24-.36.39-.09.15-.14.3-.16.47-.02.17,0,.33.05.5.05.17.14.33.27.48.11.13.23.23.36.32.14.09.28.14.42.18l-.24.49c-.18-.05-.36-.13-.54-.24-.18-.11-.35-.26-.49-.43"/>
      <polygon class="cls-13" points="8.18 30.45 10.45 27.64 12.07 28.78 11.75 29.17 10.61 28.37 9.95 29.18 11.05 29.95 10.73 30.35 9.63 29.57 8.97 30.39 10.11 31.2 9.79 31.59 8.18 30.45"/>
      <path class="cls-10" d="M11.73,32.62l1.43-3.26,1.09.42c.23.09.42.21.56.35s.22.3.26.48c.03.18,0,.37-.08.57-.07.17-.17.31-.3.41-.13.11-.27.18-.43.22-.16.04-.34.04-.53,0l.56,1.78-.7-.27-.48-1.68-.25-.09-.56,1.28-.55-.21ZM13.03,31.12l.37.14c.15.06.3.09.43.08.13,0,.24-.04.34-.1.1-.06.17-.15.22-.27.08-.18.07-.34-.01-.49-.09-.15-.25-.27-.48-.36l-.37-.14-.5,1.13Z"/>
      <polygon class="cls-24" points="16.51 34.01 16.98 31.02 15.96 30.88 16.04 30.39 18.66 30.75 18.58 31.24 17.57 31.1 17.1 34.09 16.51 34.01"/>
      <polygon class="cls-1" points="19.95 34.22 19.75 30.7 20.35 30.67 20.54 34.19 19.95 34.22"/>
      <polygon class="cls-22" points="22.75 33.93 21.82 30.52 23.8 30.05 23.93 30.52 22.37 30.89 22.49 30.73 22.85 32.03 22.64 31.88 24.1 31.54 24.23 32.01 22.77 32.36 22.87 32.14 23.33 33.79 22.75 33.93"/>
      <polygon class="cls-17" points="26.53 32.77 24.9 29.59 25.44 29.35 27.07 32.52 26.53 32.77"/>
      <polygon class="cls-12" points="29.01 31.49 26.73 28.68 28.35 27.54 28.67 27.93 27.53 28.73 28.19 29.55 29.28 28.77 29.6 29.16 28.5 29.94 29.17 30.76 30.31 29.95 30.62 30.34 29.01 31.49"/>
      <path class="cls-11" d="M32.23,28.9l-2.99-2.15.59-.72c.16-.2.35-.35.57-.47.22-.12.45-.19.69-.22.24-.03.48-.02.72.04.24.06.47.17.68.32.21.15.38.33.5.53.12.2.2.42.23.64.03.23.01.45-.05.68-.07.22-.18.44-.34.64l-.59.72ZM32.17,28.15l.19-.23c.12-.14.2-.29.24-.45.04-.16.06-.32.03-.47-.02-.16-.08-.31-.17-.45-.09-.14-.21-.27-.36-.38-.15-.11-.31-.19-.48-.23-.17-.04-.34-.06-.51-.04-.17.02-.33.07-.48.15-.15.08-.29.19-.4.33l-.19.23,2.14,1.54Z"/>
      <polygon class="cls-19" points="8.02 11.72 5.37 9.86 5.78 9.36 6.82 10.09 7.61 9.11 6.56 8.38 6.97 7.88 9.62 9.74 9.21 10.24 8.05 9.43 7.27 10.41 8.43 11.22 8.02 11.72"/>
      <path class="cls-8" d="M12.13,7.71l-.56.44-.71-.36-1.01.8.28.7-.54.43-1.15-3.14.54-.43,3.15,1.57ZM10.34,7.52l-1.14-.6.45,1.15.69-.55Z"/>
      <polygon class="cls-16" points="12.18 7.74 10.63 5.04 11.22 4.74 12.51 6.99 13.97 6.25 14.24 6.71 12.18 7.74"/>
      <path class="cls-6" d="M17.23,5.88l-.7.19-.49-.6-1.27.35-.05.75-.68.19.31-3.31.68-.18,2.2,2.62ZM15.68,5.03l-.78-.98-.09,1.22.87-.24Z"/>
      <polygon class="cls-14" points="17.28 5.93 17.04 2.87 17.7 2.82 17.91 5.36 19.57 5.25 19.61 5.77 17.28 5.93"/>
      <path class="cls-30" d="M5.27,17.84c0,.52-.45.94-1.01.94s-1.01-.42-1.01-.94.45-.94,1.01-.94,1.01.42,1.01.94"/>
      <path class="cls-15" d="M35.42,17.84c0,.52-.45.94-1.01.94s-1.01-.42-1.01-.94.45-.94,1.01-.94,1.01.42,1.01.94"/>
      <polygon class="cls-5" points="11.75 24.83 11.75 21.73 12.42 21.73 12.42 22.95 13.73 22.95 13.73 21.73 14.4 21.73 14.4 24.83 13.73 24.83 13.73 23.47 12.42 23.47 12.42 24.83 11.75 24.83"/>
      <path class="cls-25" d="M18.08,24.83h-.73l-.29-.7h-1.32l-.27.7h-.71l1.29-3.1h.71l1.33,3.1ZM16.85,23.6l-.46-1.15-.45,1.15h.91Z"/>
      <polygon class="cls-7" points="18.46 24.83 18.46 21.76 19.13 21.76 19.13 24.31 20.79 24.31 20.79 24.83 18.46 24.83"/>
      <path class="cls-21" d="M24.26,24.83h-.73l-.29-.7h-1.32l-.27.7h-.71l1.29-3.1h.71l1.33,3.1ZM23.03,23.6l-.46-1.15-.45,1.15h.91Z"/>
      <polygon class="cls-26" points="24.63 24.83 24.63 21.76 25.3 21.76 25.3 24.31 26.96 24.31 26.96 24.83 24.63 24.83"/>
      <path class="cls-9" d="M15.24,12.68s-.07,0-.12-.01c-.06,0-.1-.01-.12-.01-.18,0-.29.24-.32.73v4.52c0,.83-.21,1.54-.64,2.12-.44.6-1.05.97-1.82,1.1-.47.08-.82.11-1.04.08-.37-.05-.58-.07-.65-.08-.23-.04-.44-.1-.62-.19-.39-.38-.65-.79-.79-1.23-.12-.36-.18-.85-.18-1.45,0-.26.12-.76.36-1.48h.28c-.04.12-.06.31-.06.56,0,.68.19,1.2.57,1.56.37.35.88.53,1.53.53.59,0,1.01-.04,1.27-.13.29-.11.63-.36,1.03-.75.12-.12.22-.27.28-.45l-.77-5.76c.06-.19.22-.46.48-.82.26-.36.46-.57.61-.64.11,0,.26.27.46.79.18.49.26.83.26,1.02"/>
      <path class="cls-18" d="M22.68,19.9h-1.21c-.28,0-.53-.16-.76-.48-.21-.29-.32-.59-.32-.89.03-.58.02-1.44-.04-2.59-.29.66-.59,1.31-.88,1.96-.57,1.19-.99,1.81-1.26,1.86-.59.11-1.26.17-2.03.17-.52,0-.81-.06-.87-.17.08-.07.65-.4,1.73-.99.88-.49,1.33-.87,1.33-1.12,0-.51-.22-1.07-.67-1.69-.28-.38-.7-.83-1.26-1.37-.45-.44-.67-.69-.67-.75,0-.19.05-.46.15-.84.1-.37.2-.64.29-.8.38.36.98.87,1.8,1.52-.06.03-.22.04-.48.04-.09,0-.16.02-.22.06.7,1.07,1.1,1.76,1.19,2.08.09.32.24.78.45,1.39.56-.74.93-1.47,1.1-2.21.1-.47.2-.94.3-1.41.21-.79.42-1.24.63-1.33v5.13c0,.39.41.58,1.23.58.21,0,.37-.02.47-.05v1.87Z"/>
      <path class="cls-4" d="M29.45,16.59c0,.33-.21.79-.62,1.39-.08,0-.35,0-.81,0-.14,0-.79.32-1.97.95-1.17.64-2.05.96-2.64.97l-1,.02v-1.87s.07,0,.13.01c.06,0,.1.01.13.01h.75c.4,0,.87-.08,1.39-.23.57-.17,1-.37,1.28-.6-.97-.45-1.69-.67-2.15-.67-.16,0-.32.09-.47.26-.18.2-.3.3-.34.32l-.1-.02c-.1-.07-.14-.2-.14-.39s.27-.63.8-1.28c.22-.27.54-.4.95-.4,1.89.78,3.47,1.18,4.76,1.18.03.07.04.2.04.38"/>
      <path class="cls-27" d="M21.5,2.47h-.78s-.33,2.15,0,2.79c.15.29.78.68,1.59.56.81-.12,1.33-.75,1.37-1.34.04-.59-.2-.41-.67.16-.48.57-1.5.73-1.5-.12v-2.05Z"/>
      <path class="cls-20" d="M26.54,3.63c.4,0,1.11.23.97,1.17-.14.95-1.38,2.23-2.34,1.96-.97-.27-1.09-1.15-.39-1.04.7.11,1.93.43,1.57-.95-.34-1.29.19-1.15.19-1.15"/>
      <path class="cls-3" d="M27.29,7s.72.11,1.27-.61c.56-.72,1.14-.69,1.49-.27.34.42-.3,1.07-.6,1.63-.3.57.02,1.91-.94,1.11-.95-.79-.85-.82-1.54-1.14-.69-.32-.26-.8.32-.73"/>
      <path class="cls-28" d="M32.46,8.55c.15.3,0,.64-.87,1.19-.88.54-.8.89-.29,1.41.5.52.79,1.49-.37.57-1.16-.92-1.38-1.46-.42-2.45.96-.99,1.65-1.34,1.95-.72"/>
    </g>
  </g>
</svg>