<?xml version="1.0" encoding="UTF-8"?>
<svg id="_Слой_2" data-name="Слой 2" xmlns="http://www.w3.org/2000/svg" xmlns:xlink="http://www.w3.org/1999/xlink" viewBox="0 0 43.87 40.59">
  <defs>
    <style>
      .cls-1 {
        fill: #c8b068;
      }

      .cls-2 {
        fill: #ddc773;
      }

      .cls-3 {
        fill: #ccb46b;
      }

      .cls-4 {
        fill: #e5d17d;
      }

      .cls-5 {
        fill: #d0b867;
      }

      .cls-6 {
        fill: #e5d07f;
      }

      .cls-7 {
        fill: #bda352;
      }

      .cls-8 {
        fill: #bca251;
      }

      .cls-9 {
        fill: #c6ad66;
      }

      .cls-10 {
        fill: #e7d381;
      }

      .cls-11 {
        fill: #bba050;
      }

      .cls-12 {
        fill: #dbc571;
      }

      .cls-13 {
        fill: #c7af67;
      }

      .cls-14 {
        fill: #e3ce7a;
      }

      .cls-15 {
        fill: #c6ac65;
      }

      .cls-16 {
        fill: #e6d280;
      }

      .cls-17 {
        fill: #e4cf7b;
      }

      .cls-18 {
        fill: #dbc576;
      }

      .cls-19 {
        fill: #d8c26f;
      }

      .cls-20 {
        fill: #ddc778;
      }

      .cls-21 {
        fill: #dcc672;
      }

      .cls-22 {
        fill: #d4bd71;
      }

      .cls-23 {
        fill: #bfa656;
      }

      .cls-24 {
        fill: #d5be71;
      }

      .cls-25 {
        fill: #dec97a;
      }

      .cls-26 {
        fill: #cab261;
      }

      .cls-27 {
        fill: #cdb564;
      }

      .cls-28 {
        fill: #e9d482;
      }

      .cls-29 {
        fill: #d9c375;
      }

      .cls-30 {
        fill: #e7d380;
      }

      .cls-31 {
        fill: none;
      }

      .cls-32 {
        fill: #c2a962;
      }

      .cls-33 {
        fill: #e3ce7c;
      }

      .cls-34 {
        fill: #dac475;
      }

      .cls-35 {
        fill: #c5ab64;
      }

      .cls-36 {
        fill: #e2cd79;
      }

      .cls-37 {
        fill: #d7c173;
      }

      .cls-38 {
        fill: #cbb36a;
      }

      .cls-39 {
        fill: #e4cf7d;
      }

      .cls-40 {
        fill: #cab26a;
      }

      .cls-41 {
        fill: #d2ba69;
      }

      .cls-42 {
        fill: #e0ca7a;
      }

      .cls-43 {
        fill: #c3aa59;
      }

      .cls-44 {
        fill: #d3bc70;
      }

      .cls-45 {
        fill: #d2bc68;
      }

      .cls-46 {
        fill: #cbb362;
      }

      .cls-47 {
        fill: #cfb766;
      }

      .cls-48 {
        fill: #c5ac5b;
      }

      .cls-49 {
        fill: #d7c16d;
      }

      .cls-50 {
        fill: #dec879;
      }

      .cls-51 {
        fill: #b99f4e;
      }

      .cls-52 {
        fill: #d1b968;
      }

      .cls-53 {
        fill: #ceb66c;
      }

      .cls-54 {
        fill: #ead582;
      }

      .cls-55 {
        fill: #bda351;
      }

      .cls-56 {
        fill: #bea453;
      }

      .cls-57 {
        fill: #d1ba6e;
      }

      .cls-58 {
        fill: #c4ab5a;
      }

      .cls-59 {
        fill: #c9b160;
      }

      .cls-60 {
        fill: #d3bd69;
      }

      .cls-61 {
        fill: #d0b86e;
      }

      .cls-62 {
        fill: #dfc976;
      }

      .cls-63 {
        fill: #cdb56c;
      }

      .cls-64 {
        fill: #e9d481;
      }

      .cls-65 {
        fill: #ebd683;
      }

      .cls-66 {
        fill: #d4be6b;
      }

      .cls-67 {
        fill: #05553d;
      }

      .cls-68 {
        fill: #c7ae67;
      }

      .cls-69 {
        fill: #c6ad5c;
      }

      .cls-70 {
        fill: #c8af5e;
      }

      .cls-71 {
        fill: #d2bb6f;
      }

      .cls-72 {
        fill: #ccb463;
      }

      .cls-73 {
        fill: #dac471;
      }

      .cls-74 {
        fill: #e0cb78;
      }

      .cls-75 {
        fill: #c4aa64;
      }

      .cls-76 {
        fill: #c2a958;
      }

      .cls-77 {
        fill: #cfb76d;
      }

      .cls-78 {
        fill: #e0cb7b;
      }

      .cls-79 {
        fill: #dec875;
      }

      .cls-80 {
        fill: #ceb665;
      }

      .cls-81 {
        fill: #e2cd7b;
      }

      .cls-82 {
        fill: #e5d07c;
      }

      .cls-83 {
        fill: #d9c370;
      }

      .cls-84 {
        fill: #c0a756;
      }

      .cls-85 {
        fill: #dcc677;
      }

      .cls-86 {
        fill: #d6c06c;
      }

      .cls-87 {
        fill: #e0ca77;
      }

      .cls-88 {
        fill: #c9b169;
      }

      .cls-89 {
        fill: #d8c274;
      }

      .cls-90 {
        fill: #e6d27f;
      }

      .cls-91 {
        clip-path: url(#clippath);
      }

      .cls-92 {
        fill: #c7ae5d;
      }

      .cls-93 {
        fill: #ddc774;
      }

      .cls-94 {
        fill: #c8b05f;
      }

      .cls-95 {
        fill: #bea554;
      }

      .cls-96 {
        fill: #e1cc7b;
      }

      .cls-97 {
        fill: #d1b96e;
      }

      .cls-98 {
        fill: #e1cc78;
      }

      .cls-99 {
        fill: #e5d17f;
      }
    </style>
    <clipPath id="clippath">
      <path class="cls-31" d="M17.05.32c-1.55.33-2.44,2.42-3.84,3.05-1.42.64-3.73,0-4.95.91-1.23.92-1.06,3.16-2.04,4.31-.98,1.14-3.36,1.49-4.05,2.82-.68,1.31.51,3.26.16,4.71-.34,1.41-2.33,2.68-2.33,4.18s1.99,2.77,2.33,4.18c.35,1.45-.84,3.4-.16,4.71.69,1.33,3.07,1.67,4.05,2.82.98,1.15.81,3.39,2.04,4.31,1.22.91,3.53.26,4.95.91,1.4.63,2.29,2.72,3.84,3.05,1.5.32,3.27-1.2,4.88-1.2s3.38,1.52,4.88,1.2c1.55-.33,2.44-2.42,3.84-3.05,1.42-.64,3.73,0,4.95-.91,1.23-.92,1.06-3.16,2.04-4.31.98-1.14,3.36-1.49,4.05-2.82.68-1.31-.51-3.26-.16-4.71.34-1.41,2.33-2.68,2.33-4.18s-1.99-2.77-2.33-4.18c-.35-1.45.84-3.4.16-4.71-.69-1.33-3.07-1.67-4.04-2.82-.98-1.15-.81-3.39-2.04-4.31-1.22-.91-3.53-.26-4.95-.91-1.4-.63-2.29-2.72-3.84-3.05C25.31,0,23.54,1.52,21.93,1.52c-1.45,0-3.04-1.24-4.44-1.24-.15,0-.29.01-.44.04"/>
    </clipPath>
  </defs>
  <g id="_07_FRONT_ELEMENTS" data-name="07_FRONT_ELEMENTS">
    <g id="FRONT">
      <g>
        <g class="cls-91">
          <rect class="cls-32" y="0" width=".49" height="40.59"/>
          <rect class="cls-75" x=".49" y="0" width=".49" height="40.59"/>
          <rect class="cls-35" x=".97" y="0" width=".49" height="40.59"/>
          <rect class="cls-15" x="1.46" y="0" width=".49" height="40.59"/>
          <rect class="cls-9" x="1.95" y="0" width=".49" height="40.59"/>
          <rect class="cls-68" x="2.44" y="0" width=".49" height="40.59"/>
          <rect class="cls-13" x="2.92" y="0" width=".49" height="40.59"/>
          <rect class="cls-1" x="3.41" y="0" width=".49" height="40.59"/>
          <rect class="cls-88" x="3.9" y="0" width=".49" height="40.59"/>
          <rect class="cls-40" x="4.39" y="0" width=".49" height="40.59"/>
          <rect class="cls-38" x="4.87" y="0" width=".49" height="40.59"/>
          <rect class="cls-3" x="5.36" y="0" width=".49" height="40.59"/>
          <rect class="cls-63" x="5.85" y="0" width=".49" height="40.59"/>
          <rect class="cls-53" x="6.34" y="0" width=".49" height="40.59"/>
          <rect class="cls-77" x="6.82" y="0" width=".49" height="40.59"/>
          <rect class="cls-61" x="7.31" y="0" width=".49" height="40.59"/>
          <rect class="cls-97" x="7.8" y="0" width=".49" height="40.59"/>
          <rect class="cls-57" x="8.29" y="0" width=".49" height="40.59"/>
          <rect class="cls-71" x="8.77" y="0" width=".49" height="40.59"/>
          <rect class="cls-44" x="9.26" y="0" width=".49" height="40.59"/>
          <rect class="cls-22" x="9.75" y="0" width=".49" height="40.59"/>
          <rect class="cls-24" x="10.24" y="0" width=".49" height="40.59"/>
          <rect class="cls-37" x="10.72" y="0" width=".49" height="40.59"/>
          <rect class="cls-89" x="11.21" y="0" width=".49" height="40.59"/>
          <rect class="cls-29" x="11.7" y="0" width=".49" height="40.59"/>
          <rect class="cls-34" x="12.19" y="0" width=".49" height="40.59"/>
          <rect class="cls-18" x="12.67" y="0" width=".49" height="40.59"/>
          <rect class="cls-85" x="13.16" y="0" width=".49" height="40.59"/>
          <rect class="cls-85" x="13.65" y="0" width=".49" height="40.59"/>
          <rect class="cls-20" x="14.14" y="0" width=".49" height="40.59"/>
          <rect class="cls-50" x="14.62" y="0" width=".49" height="40.59"/>
          <rect class="cls-25" x="15.11" y="0" width=".49" height="40.59"/>
          <rect class="cls-42" x="15.6" y="0" width=".49" height="40.59"/>
          <rect class="cls-78" x="16.08" y="0" width=".49" height="40.59"/>
          <rect class="cls-96" x="16.57" y="0" width=".49" height="40.59"/>
          <rect class="cls-81" x="17.06" y="0" width=".49" height="40.59"/>
          <rect class="cls-33" x="17.55" y="0" width=".49" height="40.59"/>
          <rect class="cls-39" x="18.03" y="0" width=".49" height="40.59"/>
          <rect class="cls-6" x="18.52" y="0" width=".49" height="40.59"/>
          <rect class="cls-99" x="19.01" y="0" width=".49" height="40.59"/>
          <rect class="cls-16" x="19.5" y="0" width=".49" height="40.59"/>
          <rect class="cls-10" x="19.98" y="0" width=".49" height="40.59"/>
          <rect class="cls-28" x="20.47" y="0" width=".49" height="40.59"/>
          <rect class="cls-54" x="20.96" y="0" width=".49" height="40.59"/>
          <rect class="cls-65" x="21.45" y="0" width=".49" height="40.59"/>
          <rect class="cls-65" x="21.93" y="0" width=".41" height="40.59"/>
          <rect class="cls-54" x="22.34" y="0" width=".41" height="40.59"/>
          <rect class="cls-64" x="22.75" y="0" width=".41" height="40.59"/>
          <rect class="cls-30" x="23.15" y="0" width=".41" height="40.59"/>
          <rect class="cls-90" x="23.56" y="0" width=".41" height="40.59"/>
          <rect class="cls-4" x="23.96" y="0" width=".41" height="40.59"/>
          <rect class="cls-82" x="24.37" y="0" width=".41" height="40.59"/>
          <rect class="cls-17" x="24.78" y="0" width=".41" height="40.59"/>
          <rect class="cls-14" x="25.18" y="0" width=".41" height="40.59"/>
          <rect class="cls-36" x="25.59" y="0" width=".41" height="40.59"/>
          <rect class="cls-98" x="26" y="0" width=".41" height="40.59"/>
          <rect class="cls-74" x="26.4" y="0" width=".41" height="40.59"/>
          <rect class="cls-87" x="26.81" y="0" width=".41" height="40.59"/>
          <rect class="cls-62" x="27.21" y="0" width=".41" height="40.59"/>
          <rect class="cls-79" x="27.62" y="0" width=".41" height="40.59"/>
          <rect class="cls-93" x="28.03" y="0" width=".41" height="40.59"/>
          <rect class="cls-2" x="28.43" y="0" width=".41" height="40.59"/>
          <rect class="cls-21" x="28.84" y="0" width=".41" height="40.59"/>
          <rect class="cls-12" x="29.24" y="0" width=".41" height="40.59"/>
          <rect class="cls-73" x="29.65" y="0" width=".41" height="40.59"/>
          <rect class="cls-83" x="30.06" y="0" width=".41" height="40.59"/>
          <rect class="cls-19" x="30.46" y="0" width=".41" height="40.59"/>
          <rect class="cls-49" x="30.87" y="0" width=".41" height="40.59"/>
          <rect class="cls-86" x="31.28" y="0" width=".41" height="40.59"/>
          <rect class="cls-66" x="31.68" y="0" width=".41" height="40.59"/>
          <rect class="cls-60" x="32.09" y="0" width=".41" height="40.59"/>
          <rect class="cls-45" x="32.49" y="0" width=".41" height="40.59"/>
          <rect class="cls-41" x="32.9" y="0" width=".41" height="40.59"/>
          <rect class="cls-52" x="33.31" y="0" width=".41" height="40.59"/>
          <rect class="cls-5" x="33.71" y="0" width=".41" height="40.59"/>
          <rect class="cls-47" x="34.12" y="0" width=".41" height="40.59"/>
          <rect class="cls-80" x="34.53" y="0" width=".41" height="40.59"/>
          <rect class="cls-27" x="34.93" y="0" width=".41" height="40.59"/>
          <rect class="cls-72" x="35.34" y="0" width=".41" height="40.59"/>
          <rect class="cls-46" x="35.74" y="0" width=".41" height="40.59"/>
          <rect class="cls-26" x="36.15" y="0" width=".41" height="40.59"/>
          <rect class="cls-59" x="36.56" y="0" width=".41" height="40.59"/>
          <rect class="cls-94" x="36.96" y="0" width=".41" height="40.59"/>
          <rect class="cls-70" x="37.37" y="0" width=".41" height="40.59"/>
          <rect class="cls-92" x="37.77" y="0" width=".41" height="40.59"/>
          <rect class="cls-69" x="38.18" y="0" width=".41" height="40.59"/>
          <rect class="cls-48" x="38.59" y="0" width=".41" height="40.59"/>
          <rect class="cls-58" x="38.99" y="0" width=".41" height="40.59"/>
          <rect class="cls-43" x="39.4" y="0" width=".41" height="40.59"/>
          <rect class="cls-76" x="39.81" y="0" width=".41" height="40.59"/>
          <rect class="cls-84" x="40.21" y="0" width=".41" height="40.59"/>
          <rect class="cls-23" x="40.62" y="0" width=".41" height="40.59"/>
          <rect class="cls-95" x="41.02" y="0" width=".41" height="40.59"/>
          <rect class="cls-56" x="41.43" y="0" width=".41" height="40.59"/>
          <rect class="cls-7" x="41.84" y="0" width=".41" height="40.59"/>
          <rect class="cls-55" x="42.24" y="0" width=".41" height="40.59"/>
          <rect class="cls-8" x="42.65" y="0" width=".41" height="40.59"/>
          <rect class="cls-11" x="43.06" y="0" width=".41" height="40.59"/>
          <rect class="cls-51" x="43.46" y="0" width=".41" height="40.59"/>
        </g>
        <path class="cls-67" d="M21.93,31.59c-6.67,0-12.09-5.07-12.09-11.29s5.42-11.29,12.09-11.29,12.09,5.07,12.09,11.29-5.42,11.29-12.09,11.29M21.93,9.43c-6.42,0-11.63,4.87-11.63,10.86s5.22,10.87,11.63,10.87,11.64-4.87,11.64-10.87-5.22-10.86-11.64-10.86"/>
        <path class="cls-67" d="M21.93,37.87c-10.38,0-18.83-7.89-18.83-17.58S11.55,2.71,21.93,2.71s18.83,7.89,18.83,17.58-8.45,17.58-18.83,17.58M21.93,3.14C11.8,3.14,3.56,10.83,3.56,20.29s8.24,17.15,18.37,17.15,18.37-7.7,18.37-17.15S32.06,3.14,21.93,3.14"/>
        <path class="cls-67" d="M8.52,30.59c-.17-.21-.3-.43-.37-.67-.07-.24-.1-.48-.07-.72.02-.24.1-.47.22-.68.12-.21.29-.4.51-.56.22-.16.45-.27.7-.32.25-.06.5-.07.76-.04.26.04.5.11.73.24.23.12.43.29.61.5.14.17.25.35.33.54.08.19.12.38.12.55l-.56.1c0-.14-.03-.28-.08-.42-.06-.14-.14-.28-.25-.41-.13-.15-.27-.27-.43-.36-.16-.09-.33-.14-.51-.17-.18-.02-.35-.01-.53.03-.17.04-.34.12-.49.23-.15.11-.27.24-.36.39-.09.15-.14.3-.16.47-.02.17,0,.33.05.5.05.17.14.33.27.48.11.13.23.23.36.32.14.09.28.14.42.18l-.24.49c-.18-.05-.36-.13-.54-.24-.18-.11-.35-.26-.49-.43"/>
        <polygon class="cls-67" points="10.78 32.66 13.05 29.85 14.67 30.99 14.36 31.38 13.22 30.58 12.56 31.39 13.65 32.16 13.34 32.56 12.24 31.78 11.58 32.6 12.72 33.41 12.4 33.8 10.78 32.66"/>
        <path class="cls-67" d="M14.33,34.83l1.43-3.26,1.09.42c.23.09.42.21.56.35s.22.3.26.48c.03.18,0,.37-.08.57-.07.17-.17.31-.3.41-.13.11-.27.18-.43.22-.16.04-.34.04-.53,0l.56,1.78-.7-.27-.48-1.68-.25-.09-.56,1.28-.55-.21ZM15.64,33.33l.37.14c.15.06.3.09.43.08.13,0,.24-.04.34-.1.1-.06.17-.15.22-.27.08-.18.07-.34-.01-.49-.09-.15-.25-.27-.48-.36l-.37-.14-.5,1.13Z"/>
        <polygon class="cls-67" points="19.11 36.23 19.58 33.23 18.57 33.1 18.64 32.6 21.27 32.96 21.19 33.45 20.17 33.31 19.7 36.31 19.11 36.23"/>
        <polygon class="cls-67" points="22.55 36.43 22.36 32.91 22.95 32.88 23.15 36.4 22.55 36.43"/>
        <polygon class="cls-67" points="25.35 36.14 24.42 32.73 26.4 32.26 26.53 32.74 24.97 33.11 25.1 32.94 25.45 34.24 25.24 34.09 26.7 33.75 26.83 34.22 25.37 34.57 25.48 34.35 25.93 36 25.35 36.14"/>
        <polygon class="cls-67" points="29.14 34.98 27.5 31.8 28.04 31.56 29.68 34.73 29.14 34.98"/>
        <polygon class="cls-67" points="31.62 33.7 29.34 30.89 30.96 29.75 31.27 30.14 30.13 30.94 30.79 31.76 31.89 30.98 32.21 31.38 31.11 32.15 31.77 32.97 32.91 32.16 33.23 32.56 31.62 33.7"/>
        <path class="cls-67" d="M34.83,31.11l-2.99-2.15.59-.72c.16-.2.35-.35.57-.47.22-.12.45-.19.69-.22.24-.03.48-.02.72.04.24.06.47.17.68.32.21.15.38.33.5.53.12.2.2.42.23.64.03.23.01.45-.05.68-.07.22-.18.44-.34.64l-.59.72ZM34.78,30.36l.19-.23c.12-.14.2-.29.24-.45.04-.16.06-.32.03-.47-.02-.16-.08-.31-.17-.45-.09-.14-.21-.27-.36-.38-.15-.11-.31-.19-.48-.23-.17-.04-.34-.06-.51-.04-.17.02-.33.07-.48.15-.15.08-.29.19-.4.33l-.19.23,2.14,1.54Z"/>
        <polygon class="cls-67" points="10.63 13.93 7.98 12.07 8.38 11.57 9.43 12.3 10.21 11.32 9.17 10.59 9.57 10.09 12.22 11.95 11.82 12.45 10.66 11.64 9.87 12.62 11.03 13.43 10.63 13.93"/>
        <path class="cls-67" d="M14.73,9.92l-.56.44-.71-.36-1.01.8.28.7-.54.43-1.15-3.14.54-.43,3.15,1.57ZM12.95,9.73l-1.14-.6.45,1.15.69-.55Z"/>
        <polygon class="cls-67" points="14.79 9.96 13.23 7.25 13.82 6.96 15.11 9.2 16.58 8.46 16.84 8.92 14.79 9.96"/>
        <path class="cls-67" d="M19.83,8.09l-.7.19-.49-.6-1.27.35-.05.75-.68.19.31-3.31.68-.18,2.2,2.62ZM18.28,7.24l-.78-.98-.09,1.22.87-.24Z"/>
        <polygon class="cls-67" points="19.89 8.14 19.64 5.08 20.31 5.03 20.51 7.57 22.17 7.46 22.21 7.98 19.89 8.14"/>
        <path class="cls-67" d="M7.87,20.05c0,.52-.45.94-1.01.94s-1.01-.42-1.01-.94.45-.94,1.01-.94,1.01.42,1.01.94"/>
        <path class="cls-67" d="M38.03,20.05c0,.52-.45.94-1.01.94s-1.01-.42-1.01-.94.45-.94,1.01-.94,1.01.42,1.01.94"/>
        <polygon class="cls-67" points="14.36 27.04 14.36 23.94 15.03 23.94 15.03 25.16 16.34 25.16 16.34 23.94 17.01 23.94 17.01 27.04 16.34 27.04 16.34 25.69 15.03 25.69 15.03 27.04 14.36 27.04"/>
        <path class="cls-67" d="M20.69,27.04h-.73l-.29-.7h-1.32l-.27.7h-.71l1.29-3.1h.71l1.33,3.1ZM19.46,25.81l-.46-1.15-.45,1.15h.91Z"/>
        <polygon class="cls-67" points="21.06 27.04 21.06 23.97 21.73 23.97 21.73 26.52 23.4 26.52 23.4 27.04 21.06 27.04"/>
        <path class="cls-67" d="M26.86,27.04h-.73l-.29-.7h-1.32l-.27.7h-.71l1.29-3.1h.71l1.33,3.1ZM25.63,25.81l-.46-1.15-.45,1.15h.91Z"/>
        <polygon class="cls-67" points="27.24 27.04 27.24 23.97 27.91 23.97 27.91 26.52 29.57 26.52 29.57 27.04 27.24 27.04"/>
        <path class="cls-67" d="M17.85,14.89s-.07,0-.12-.01c-.06,0-.1-.01-.12-.01-.18,0-.29.24-.32.73v4.52c0,.83-.21,1.54-.64,2.12-.44.6-1.05.97-1.82,1.1-.47.08-.82.11-1.04.08-.37-.05-.58-.07-.65-.08-.23-.04-.44-.1-.62-.19-.39-.38-.65-.79-.79-1.23-.12-.36-.18-.85-.18-1.45,0-.26.12-.76.36-1.48h.28c-.04.12-.06.31-.06.56,0,.68.19,1.2.57,1.56.37.35.88.53,1.53.53.59,0,1.01-.04,1.27-.13.29-.11.63-.36,1.03-.75.12-.12.22-.27.28-.45l-.77-5.76c.06-.19.22-.46.48-.82.26-.36.46-.57.61-.64.11,0,.26.27.46.79.18.49.26.83.26,1.02"/>
        <path class="cls-67" d="M25.28,22.11h-1.21c-.28,0-.53-.16-.76-.48-.21-.29-.32-.59-.32-.89.03-.58.02-1.44-.04-2.59-.29.66-.59,1.31-.88,1.96-.57,1.19-.99,1.81-1.26,1.86-.59.11-1.26.17-2.03.17-.52,0-.81-.06-.87-.17.08-.07.65-.4,1.73-.99.88-.49,1.33-.87,1.33-1.12,0-.51-.22-1.07-.67-1.69-.28-.38-.7-.83-1.26-1.37-.45-.44-.67-.69-.67-.75,0-.19.05-.46.15-.84.1-.37.2-.64.29-.8.38.36.98.87,1.8,1.52-.06.03-.22.04-.48.04-.09,0-.16.02-.22.06.7,1.07,1.1,1.76,1.19,2.08.09.32.24.78.45,1.39.56-.74.93-1.47,1.1-2.21.1-.47.2-.94.3-1.41.21-.79.42-1.24.63-1.33v5.13c0,.39.41.58,1.23.58.21,0,.37-.02.47-.05v1.87Z"/>
        <path class="cls-67" d="M32.06,18.8c0,.33-.21.79-.62,1.39-.08,0-.35,0-.81,0-.14,0-.79.32-1.97.95-1.17.64-2.05.96-2.64.97l-1,.02v-1.87s.07,0,.13.01c.06,0,.1.01.13.01h.75c.4,0,.87-.08,1.39-.23.57-.17,1-.37,1.28-.6-.97-.45-1.69-.67-2.15-.67-.16,0-.32.09-.47.26-.18.2-.3.3-.34.32l-.1-.02c-.1-.07-.14-.2-.14-.39s.27-.63.8-1.28c.22-.27.54-.4.95-.4,1.89.78,3.47,1.18,4.76,1.18.03.07.04.2.04.38"/>
        <path class="cls-67" d="M24.11,4.68h-.78s-.33,2.15,0,2.79c.15.29.78.68,1.59.56.81-.12,1.33-.75,1.37-1.34.04-.59-.2-.41-.67.16-.48.57-1.5.73-1.5-.12v-2.05Z"/>
        <path class="cls-67" d="M29.15,5.84c.4,0,1.11.23.97,1.17-.14.95-1.38,2.23-2.34,1.96-.97-.27-1.09-1.15-.39-1.04.7.11,1.93.43,1.57-.95-.34-1.29.19-1.15.19-1.15"/>
        <path class="cls-67" d="M29.9,9.21s.72.11,1.27-.61c.56-.72,1.14-.69,1.49-.27.34.42-.3,1.07-.6,1.63-.3.57.02,1.91-.94,1.11-.95-.79-.85-.82-1.54-1.14-.69-.32-.26-.8.32-.73"/>
        <path class="cls-67" d="M35.06,10.76c.15.3,0,.64-.87,1.19-.88.54-.8.89-.29,1.41.5.52.79,1.49-.37.57-1.16-.92-1.38-1.46-.42-2.45.96-.99,1.65-1.34,1.95-.72"/>
      </g>
    </g>
  </g>
</svg>