<?xml version="1.0" encoding="UTF-8"?>
<svg id="_Слой_2" data-name="Слой 2" xmlns="http://www.w3.org/2000/svg" xmlns:xlink="http://www.w3.org/1999/xlink" viewBox="0 0 357.53 81.05">
  <defs>
    <style>
      .cls-1 {
        fill: url(#_Безымянный_градиент_12);
      }

      .cls-2 {
        fill: url(#_Безымянный_градиент_12-12);
      }

      .cls-3 {
        fill: url(#_Безымянный_градиент_12-2);
      }

      .cls-4 {
        fill: url(#_Безымянный_градиент_12-3);
      }

      .cls-5 {
        fill: url(#_Безымянный_градиент_12-10);
      }

      .cls-6 {
        fill: url(#_Безымянный_градиент_12-9);
      }

      .cls-7 {
        fill: url(#_Безымянный_градиент_12-11);
      }

      .cls-8 {
        fill: url(#_Безымянный_градиент_12-5);
      }

      .cls-9 {
        fill: url(#_Безымянный_градиент_12-6);
      }

      .cls-10 {
        fill: url(#_Безымянный_градиент_12-4);
      }

      .cls-11 {
        fill: url(#_Безымянный_градиент_12-8);
      }

      .cls-12 {
        fill: url(#_Безымянный_градиент_12-7);
      }
    </style>
    <linearGradient id="_Безымянный_градиент_12" data-name="Безымянный градиент 12" x1="69.47" y1="541.85" x2="100.75" y2="541.85" gradientTransform="translate(-69.47 588.07) scale(1 -1)" gradientUnits="userSpaceOnUse">
      <stop offset="0" stop-color="#1b6c53"/>
      <stop offset=".1" stop-color="#1b6c53"/>
      <stop offset=".19" stop-color="#20755b"/>
      <stop offset=".33" stop-color="#2c8b6e"/>
      <stop offset=".51" stop-color="#3eb08e"/>
      <stop offset=".53" stop-color="#3fb392"/>
      <stop offset=".93" stop-color="#1f5d4a"/>
      <stop offset="1" stop-color="#1f5d4a"/>
    </linearGradient>
    <linearGradient id="_Безымянный_градиент_12-2" data-name="Безымянный градиент 12" x1="118.98" y1="569.53" x2="184.02" y2="569.53" xlink:href="#_Безымянный_градиент_12"/>
    <linearGradient id="_Безымянный_градиент_12-3" data-name="Безымянный градиент 12" x1="149.11" y1="582.7" x2="180.87" y2="582.7" xlink:href="#_Безымянный_градиент_12"/>
    <linearGradient id="_Безымянный_градиент_12-4" data-name="Безымянный градиент 12" x1="140.23" y1="-398.56" x2="226.22" y2="-339.79" gradientTransform="translate(-138.94 413.31)" xlink:href="#_Безымянный_градиент_12"/>
    <linearGradient id="_Безымянный_градиент_12-5" data-name="Безымянный градиент 12" x1="142.74" y1="-405.12" x2="193.02" y2="-351.2" gradientTransform="translate(-138.94 413.31)" xlink:href="#_Безымянный_градиент_12"/>
    <linearGradient id="_Безымянный_градиент_12-6" data-name="Безымянный градиент 12" x1="263.75" y1="-400.97" x2="214.1" y2="-369.7" gradientTransform="translate(-138.94 413.31)" xlink:href="#_Безымянный_градиент_12"/>
    <linearGradient id="_Безымянный_градиент_12-7" data-name="Безымянный градиент 12" x1="127.49" y1="545.96" x2="191.46" y2="545.96" xlink:href="#_Безымянный_градиент_12"/>
    <linearGradient id="_Безымянный_градиент_12-8" data-name="Безымянный градиент 12" x1="166.76" y1="39.16" x2="156.89" y2="145.71" gradientTransform="matrix(1,0,0,1,0,0)" xlink:href="#_Безымянный_градиент_12"/>
    <linearGradient id="_Безымянный_градиент_12-9" data-name="Безымянный градиент 12" x1="208.13" y1="42.99" x2="198.26" y2="149.54" gradientTransform="matrix(1,0,0,1,0,0)" xlink:href="#_Безымянный_градиент_12"/>
    <linearGradient id="_Безымянный_градиент_12-10" data-name="Безымянный градиент 12" x1="229.27" y1="44.95" x2="219.4" y2="151.5" gradientTransform="matrix(1,0,0,1,0,0)" xlink:href="#_Безымянный_градиент_12"/>
    <linearGradient id="_Безымянный_градиент_12-11" data-name="Безымянный градиент 12" x1="271.1" y1="48.82" x2="261.23" y2="155.38" gradientTransform="matrix(1,0,0,1,0,0)" xlink:href="#_Безымянный_градиент_12"/>
    <linearGradient id="_Безымянный_градиент_12-12" data-name="Безымянный градиент 12" x1="331.85" y1="54.45" x2="321.97" y2="161.01" gradientTransform="matrix(1,0,0,1,0,0)" xlink:href="#_Безымянный_градиент_12"/>
  </defs>
  <g id="_Слой_1-2" data-name="Слой 1">
    <g id="uuid-747b1ddd-b8f1-4c11-b799-af4acc88c31e" data-name=" Слой 1-2">
      <g>
        <g>
          <polygon class="cls-1" points="25.84 40.98 0 51.46 31.28 51.46 25.84 40.98"/>
          <path class="cls-3" d="M49.51,27.32l.82,1.52s33.05-12.55,64.22-16.45c0,0-2.53-6.06-15.14-3.54-12.61,2.52-49.9,18.48-49.9,18.48h0Z"/>
          <path class="cls-4" d="M79.64,10.73S84.07.98,96.34,0h15.06l-2.28,4.64s-3.91-.35-8.29.29-21.19,5.78-21.19,5.78h0Z"/>
          <path class="cls-10" d="M40.09,68.31C35.88,60.5,4.71.16,4.71.16L20.08,0s6-.35,10.86,4.12c4.98,4.58,7.85,10.73,8.12,11.08l18.22,35.3s9.92,24.32,23.66,7.73l-5.43,10.76c-1.03,1.84-1.95,3.64-4.57,6.26s-4.54,3.66-4.54,3.66c0,0-3,2.01-6.58,2.11s-6.23-.26-7.79-.91c0,0-6.95-2.58-11.93-11.83h0v.02Z"/>
          <path class="cls-8" d="M52.02,80.13c1.56.65,4.2,1,7.78.91,3.58-.1,6.58-2.11,6.58-2.11,0,0,1.92-1.04,4.54-3.66,2.63-2.62,3.54-4.42,4.57-6.26l2.18-4.32h0c-15.62,16.9-33.19-13.83-33.19-13.83,0,0-16.46-32.82-23.35-40.61C14.25,2.47,4.71.16,4.71.16c0,0,31.17,60.33,35.38,68.14,4.98,9.25,11.93,11.83,11.93,11.83h0Z"/>
          <path class="cls-9" d="M58.03,52.15l10.52-20.05.35-.67-4.93,1.42-5.77,11.06-6.12-11.64,6.16-2.11s38.27-13.46,70.59-15.41c0,0-4.12,19.13-24.96,36.66l-19.06.06-3.87,6.79s-11.42,16.33-22.91-6.11h0Z"/>
          <path class="cls-12" d="M68.89,31.43l-.35.67-10.52,20.05c11.49,22.44,22.43,6.97,22.43,6.97l4.35-7.65,16.67-.05c14.31-14.26,20.52-31.44,20.52-31.44-11.3-1.15-53.1,11.46-53.1,11.46h0Z"/>
        </g>
        <g>
          <path class="cls-11" d="M151.59,21.25l16.69,31.5,16.92-31.5h9.78l-21.1,38.55h-11.38l-20.64-38.55h9.73Z"/>
          <path class="cls-6" d="M203.96,21.25h8.8v38.55h-8.8V21.25Z"/>
          <path class="cls-5" d="M225.28,21.25h8.8v38.55h-8.8V21.25Z"/>
          <path class="cls-7" d="M246.61,21.25h13.66l28.64,32.08-.17-32.08h8.4v38.55h-13.72l-28.47-31.91.17,31.91h-8.52V21.25h.01Z"/>
          <path class="cls-2" d="M357.52,39.17v4.1c0,7.05-.4,9.6-1.77,12.14-1.14,2.08-3.03,3.35-6,4.1-2.06.52-5.32.64-16.81.64-10.12,0-15.04-.35-17.38-1.27-3.66-1.39-5.55-3.64-6.35-7.75-.46-2.2-.63-4.74-.63-10.23,0-10.17.63-13.41,3.09-16.13,1.6-1.73,3.83-2.77,6.86-3.18,3.54-.52,7.6-.69,18.81-.69s15.15.81,17.55,3.58c1.66,1.85,2.46,4.86,2.46,9.13h-8.63c-.06-2.43-.34-3.35-1.43-4.22-1.49-1.21-3.43-1.45-10.86-1.45-13.78,0-15.89.23-17.38,2.02-1.2,1.39-1.6,3.93-1.6,9.94,0,7.51.46,10.12,2.06,11.5,1.66,1.5,3.83,1.79,14.18,1.79,11.32,0,12.52-.23,14.24-2.72.74-.98,1.03-2.83,1.03-5.49h-16.98v-5.84h25.55v.03Z"/>
        </g>
      </g>
    </g>
  </g>
</svg>