<?xml version="1.0" encoding="UTF-8"?>
<svg id="_Слой_2" data-name="Слой 2" xmlns="http://www.w3.org/2000/svg" xmlns:xlink="http://www.w3.org/1999/xlink" viewBox="0 0 357.52 81.05">
  <defs>
    <style>
      .cls-1 {
        fill: url(#_Безымянный_градиент_8-7);
      }

      .cls-2 {
        fill: url(#GREEN_LIGHT-4);
      }

      .cls-3 {
        fill: url(#_Безымянный_градиент_8-3);
      }

      .cls-4 {
        fill: url(#GREEN_LIGHT-5);
      }

      .cls-5 {
        fill: url(#_Безымянный_градиент_8-5);
      }

      .cls-6 {
        fill: url(#GREEN_LIGHT-3);
      }

      .cls-7 {
        fill: url(#_Безымянный_градиент_8-2);
      }

      .cls-8 {
        fill: url(#_Безымянный_градиент_8-4);
      }

      .cls-9 {
        fill: url(#GREEN_LIGHT-2);
      }

      .cls-10 {
        fill: url(#_Безымянный_градиент_8);
      }

      .cls-11 {
        fill: url(#_Безымянный_градиент_8-6);
      }

      .cls-12 {
        fill: url(#GREEN_LIGHT);
      }
    </style>
    <linearGradient id="_Безымянный_градиент_8" data-name="Безымянный градиент 8" x1="0" y1="46.21" x2="31.28" y2="46.21" gradientUnits="userSpaceOnUse">
      <stop offset="0" stop-color="#1b6c53"/>
      <stop offset=".1" stop-color="#1b6c53"/>
      <stop offset=".19" stop-color="#1f745a"/>
      <stop offset=".33" stop-color="#2a8a6d"/>
      <stop offset=".51" stop-color="#3daf8d"/>
      <stop offset=".53" stop-color="#3fb391"/>
      <stop offset=".93" stop-color="#1d5c49"/>
      <stop offset="1" stop-color="#1d5c49"/>
    </linearGradient>
    <linearGradient id="_Безымянный_градиент_8-2" data-name="Безымянный градиент 8" x1="49.51" y1="18.52" x2="114.55" y2="18.52" xlink:href="#_Безымянный_градиент_8"/>
    <linearGradient id="_Безымянный_градиент_8-3" data-name="Безымянный градиент 8" x1="79.64" y1="5.36" x2="111.4" y2="5.36" xlink:href="#_Безымянный_градиент_8"/>
    <linearGradient id="_Безымянный_градиент_8-4" data-name="Безымянный градиент 8" x1="70.75" y1="554.48" x2="156.74" y2="495.71" gradientTransform="translate(-69.47 569.23) scale(1 -1)" xlink:href="#_Безымянный_градиент_8"/>
    <linearGradient id="_Безымянный_градиент_8-5" data-name="Безымянный градиент 8" x1="73.27" y1="561.05" x2="123.55" y2="507.13" gradientTransform="translate(-69.47 569.23) scale(1 -1)" xlink:href="#_Безымянный_градиент_8"/>
    <linearGradient id="_Безымянный_градиент_8-6" data-name="Безымянный градиент 8" x1="194.28" y1="556.9" x2="144.63" y2="525.63" gradientTransform="translate(-69.47 569.23) scale(1 -1)" xlink:href="#_Безымянный_градиент_8"/>
    <linearGradient id="_Безымянный_градиент_8-7" data-name="Безымянный градиент 8" x1="58.03" y1="42.1" x2="122" y2="42.1" xlink:href="#_Безымянный_градиент_8"/>
    <linearGradient id="GREEN_LIGHT" data-name="GREEN LIGHT" x1="168.53" y1="25.25" x2="170.23" y2="97.08" gradientUnits="userSpaceOnUse">
      <stop offset="0" stop-color="#1b6c53"/>
      <stop offset=".1" stop-color="#1b6c53"/>
      <stop offset=".19" stop-color="#1f745a"/>
      <stop offset=".33" stop-color="#2a8a6d"/>
      <stop offset=".51" stop-color="#3daf8d"/>
      <stop offset=".53" stop-color="#3fb391"/>
      <stop offset=".93" stop-color="#1d5c49"/>
      <stop offset="1" stop-color="#1d5c49"/>
    </linearGradient>
    <linearGradient id="GREEN_LIGHT-2" data-name="GREEN LIGHT" x1="207.98" y1="24.32" x2="209.68" y2="96.15" xlink:href="#GREEN_LIGHT"/>
    <linearGradient id="GREEN_LIGHT-3" data-name="GREEN LIGHT" x1="229.29" y1="23.81" x2="230.99" y2="95.64" xlink:href="#GREEN_LIGHT"/>
    <linearGradient id="GREEN_LIGHT-4" data-name="GREEN LIGHT" x1="271.46" y1="22.81" x2="273.16" y2="94.64" xlink:href="#GREEN_LIGHT"/>
    <linearGradient id="GREEN_LIGHT-5" data-name="GREEN LIGHT" x1="332.58" y1="21.36" x2="334.28" y2="93.19" xlink:href="#GREEN_LIGHT"/>
  </defs>
  <g id="_Слой_1-2" data-name="Слой 1">
    <g>
      <g>
        <polygon class="cls-10" points="25.84 40.97 0 51.45 31.28 51.45 25.84 40.97"/>
        <path class="cls-7" d="M49.51,27.31l.82,1.52s33.05-12.55,64.22-16.45c0,0-2.53-6.06-15.14-3.54-12.61,2.52-49.9,18.48-49.9,18.48h0Z"/>
        <path class="cls-3" d="M79.64,10.72S84.07.97,96.34,0h15.06l-2.28,4.64s-3.91-.35-8.29.29-21.19,5.78-21.19,5.78h0Z"/>
        <path class="cls-8" d="M40.09,68.3C35.88,60.49,4.71.15,4.71.15L20.08,0s6-.35,10.86,4.12c4.98,4.58,7.85,10.73,8.12,11.08l18.22,35.3s9.92,24.32,23.66,7.73l-5.43,10.76c-1.03,1.84-1.95,3.64-4.57,6.26s-4.54,3.66-4.54,3.66c0,0-3,2.01-6.58,2.11s-6.23-.26-7.79-.91c0,0-6.95-2.58-11.93-11.83h0Z"/>
        <path class="cls-5" d="M52.02,80.12c1.56.65,4.2,1,7.78.91,3.58-.1,6.58-2.11,6.58-2.11,0,0,1.92-1.04,4.54-3.66,2.63-2.62,3.54-4.42,4.57-6.26l2.18-4.32h0c-15.62,16.9-33.19-13.83-33.19-13.83,0,0-16.46-32.82-23.35-40.61C14.25,2.46,4.71.15,4.71.15c0,0,31.17,60.33,35.38,68.14,4.98,9.25,11.93,11.83,11.93,11.83h0Z"/>
        <path class="cls-11" d="M58.03,52.14l10.52-20.05.35-.67-4.93,1.42-5.77,11.06-6.12-11.64,6.16-2.11s38.27-13.46,70.59-15.41c0,0-4.12,19.13-24.96,36.66l-19.06.06-3.87,6.79s-11.42,16.33-22.91-6.11h0Z"/>
        <path class="cls-1" d="M68.89,31.42l-.35.67-10.52,20.05c11.49,22.44,22.43,6.97,22.43,6.97l4.35-7.65,16.67-.05c14.31-14.26,20.52-31.44,20.52-31.44-11.3-1.15-53.1,11.46-53.1,11.46h0Z"/>
      </g>
      <g>
        <path class="cls-12" d="M151.59,21.24l16.69,31.5,16.92-31.5h9.78l-21.1,38.55h-11.38l-20.64-38.55h9.72Z"/>
        <path class="cls-9" d="M203.96,21.24h8.8v38.55h-8.8V21.24Z"/>
        <path class="cls-6" d="M225.28,21.24h8.8v38.55h-8.8V21.24Z"/>
        <path class="cls-2" d="M246.61,21.24h13.66l28.64,32.08-.17-32.08h8.4v38.55h-13.72l-28.47-31.91.17,31.91h-8.52V21.24Z"/>
        <path class="cls-4" d="M357.52,39.16v4.1c0,7.05-.4,9.6-1.77,12.14-1.14,2.08-3.03,3.35-6,4.1-2.06.52-5.32.64-16.81.64-10.12,0-15.04-.35-17.38-1.27-3.66-1.39-5.55-3.64-6.35-7.75-.46-2.2-.63-4.74-.63-10.23,0-10.17.63-13.41,3.09-16.13,1.6-1.73,3.83-2.77,6.86-3.18,3.54-.52,7.6-.69,18.81-.69s15.15.81,17.55,3.58c1.66,1.85,2.46,4.86,2.46,9.13h-8.63c-.06-2.43-.34-3.35-1.43-4.22-1.49-1.21-3.43-1.45-10.86-1.45-13.78,0-15.89.23-17.38,2.02-1.2,1.39-1.6,3.93-1.6,9.94,0,7.51.46,10.12,2.06,11.5,1.66,1.5,3.83,1.79,14.18,1.79,11.32,0,12.52-.23,14.24-2.72.74-.98,1.03-2.83,1.03-5.49h-16.98v-5.84h25.55Z"/>
      </g>
    </g>
  </g>
</svg>