<?xml version="1.0" encoding="UTF-8"?>
<svg id="_Слой_2" data-name="Слой 2" xmlns="http://www.w3.org/2000/svg" xmlns:xlink="http://www.w3.org/1999/xlink" viewBox="0 0 29.21 29.38">
  <defs>
    <style>
      .cls-1 {
        fill: #fff;
        stroke: #fff;
      }

      .cls-1, .cls-2, .cls-3 {
        stroke-miterlimit: 11.34;
      }

      .cls-1, .cls-4 {
        stroke-width: 1.5px;
      }

      .cls-5 {
        fill: url(#_Безымянный_градиент_4);
      }

      .cls-6 {
        fill: url(#_Безымянный_градиент_4-3);
      }

      .cls-7 {
        fill: url(#_Безымянный_градиент_4-2);
      }

      .cls-2 {
        stroke: url(#GOLD_GRADIENT);
      }

      .cls-2, .cls-4 {
        fill: none;
      }

      .cls-3 {
        fill: rgba(255, 255, 255, .55);
        stroke: url(#_Безымянный_градиент_12);
        stroke-width: 1.28px;
      }

      .cls-4 {
        stroke: url(#_Безымянный_градиент_4-4);
        stroke-linecap: round;
        stroke-linejoin: round;
      }
    </style>
    <linearGradient id="_Безымянный_градиент_12" data-name="Безымянный градиент 12" x1="0" y1="14.69" x2="29.21" y2="14.69" gradientUnits="userSpaceOnUse">
      <stop offset="0" stop-color="#c5a059"/>
      <stop offset=".5" stop-color="#e8d089"/>
      <stop offset="1" stop-color="#c5a059"/>
    </linearGradient>
    <linearGradient id="_Безымянный_градиент_4" data-name="Безымянный градиент 4" x1="7.71" y1="14.7" x2="11.58" y2="14.7" gradientUnits="userSpaceOnUse">
      <stop offset="0" stop-color="#d2ba69"/>
      <stop offset=".31" stop-color="#ebd683"/>
      <stop offset=".4" stop-color="#e3cd7b"/>
      <stop offset=".53" stop-color="#d2ba69"/>
      <stop offset="1" stop-color="#bea453"/>
    </linearGradient>
    <linearGradient id="_Безымянный_градиент_4-2" data-name="Безымянный градиент 4" x1="11.92" y1="14.69" x2="17.01" y2="14.69" xlink:href="#_Безымянный_градиент_4"/>
    <linearGradient id="_Безымянный_градиент_4-3" data-name="Безымянный градиент 4" x1="17.32" y1="14.69" x2="21.5" y2="14.69" xlink:href="#_Безымянный_градиент_4"/>
    <linearGradient id="_Безымянный_градиент_4-4" data-name="Безымянный градиент 4" x1="3.7" y1="14.69" x2="25.51" y2="14.69" xlink:href="#_Безымянный_градиент_4"/>
    <linearGradient id="GOLD_GRADIENT" data-name="GOLD GRADIENT" x1="7.02" y1="14.67" x2="22.16" y2="14.67" gradientUnits="userSpaceOnUse">
      <stop offset="0" stop-color="#d2ba69"/>
      <stop offset=".31" stop-color="#ebd683"/>
      <stop offset=".4" stop-color="#e3cd7b"/>
      <stop offset=".53" stop-color="#d2ba69"/>
      <stop offset="1" stop-color="#bea453"/>
    </linearGradient>
  </defs>
  <g id="_Слой_1-2" data-name="Слой 1">
    <g>
      <ellipse class="cls-3" cx="14.61" cy="14.69" rx="13.97" ry="14.05"/>
      <g>
        <g>
          <path class="cls-5" d="M11.58,13.57c0,.32-.05.6-.15.85s-.24.45-.43.62c-.19.17-.42.3-.7.38s-.6.13-.97.13h-.47v1.82s0,.06-.03.08-.05.04-.09.06-.1.03-.17.04-.17.01-.28.01-.2,0-.28-.01-.13-.02-.18-.04-.07-.03-.09-.06-.03-.05-.03-.08v-5.12c0-.14.04-.24.11-.31.07-.07.17-.1.28-.1h1.33c.13,0,.26,0,.38.02.12,0,.27.03.44.07.17.03.34.1.51.19s.32.21.44.35c.12.14.22.3.28.49.06.19.1.4.1.63ZM10.38,13.66c0-.2-.03-.36-.1-.49s-.16-.22-.26-.29-.21-.1-.32-.12c-.11-.02-.23-.02-.35-.02h-.49v1.93h.52c.18,0,.34-.02.46-.07s.23-.12.3-.21c.08-.09.14-.2.18-.32.04-.12.06-.26.06-.41Z"/>
          <path class="cls-7" d="M15.25,17.34c-.01.05-.03.09-.06.12-.02.03-.06.05-.11.07-.05.02-.12.03-.21.03-.09,0-.21,0-.35,0-.12,0-.22,0-.3,0-.08,0-.15,0-.21-.01s-.11-.01-.14-.03-.07-.03-.09-.04-.04-.04-.06-.06c-.01-.02-.03-.06-.04-.09l-1.68-5.05c-.03-.11-.06-.19-.06-.25s0-.11.04-.14c.04-.03.1-.05.19-.06.09,0,.21-.01.37-.01.13,0,.24,0,.31,0s.13.02.17.03.07.04.09.07.03.07.05.11l1.38,4.39h0l1.35-4.37c.01-.05.03-.09.04-.12.02-.03.05-.05.09-.07s.1-.03.18-.04.19,0,.32,0,.24,0,.31.01.13.03.15.06c.03.03.04.08.03.14s-.03.14-.07.25l-1.69,5.05Z"/>
          <path class="cls-6" d="M21.5,16.68c0,.07,0,.14,0,.19,0,.05-.01.1-.02.13,0,.04-.02.07-.03.1s-.04.06-.07.09c-.03.03-.09.08-.19.13s-.2.1-.34.15c-.13.05-.28.09-.45.12s-.36.05-.55.05c-.39,0-.74-.06-1.05-.18s-.58-.3-.8-.54c-.22-.24-.39-.54-.5-.9s-.17-.77-.17-1.25.06-.91.19-1.29.31-.69.54-.95.51-.45.83-.58.68-.2,1.07-.2c.16,0,.31.01.45.04s.28.06.4.1c.12.04.24.09.33.15s.17.1.21.14c.04.04.07.07.08.1s.03.06.03.1.02.09.02.15,0,.12,0,.21c0,.09,0,.16,0,.22s-.02.11-.03.15-.03.07-.05.08-.04.03-.07.03c-.04,0-.1-.03-.17-.08-.07-.05-.15-.11-.26-.17-.11-.06-.23-.12-.38-.17-.15-.05-.32-.08-.53-.08-.22,0-.43.05-.6.14-.18.09-.33.22-.45.4-.12.17-.22.38-.28.62s-.1.52-.1.82c0,.33.03.62.1.87.07.24.17.45.29.6s.28.28.46.35c.18.08.38.12.61.12.2,0,.38-.02.53-.07.15-.05.28-.1.38-.16s.19-.11.26-.16.12-.07.16-.07c.03,0,.05,0,.07.02s.03.04.04.07.02.08.03.15c0,.06,0,.15,0,.25Z"/>
        </g>
        <line class="cls-1" x1="21.8" y1="7.48" x2="7.37" y2="21.87"/>
        <ellipse class="cls-4" cx="14.61" cy="14.69" rx="10.16" ry="10.22"/>
        <line class="cls-2" x1="21.8" y1="7.48" x2="7.37" y2="21.87"/>
      </g>
    </g>
  </g>
</svg>