<?xml version="1.0" encoding="UTF-8"?>
<svg id="_Слой_2" data-name="Слой 2" xmlns="http://www.w3.org/2000/svg" xmlns:xlink="http://www.w3.org/1999/xlink" viewBox="0 0 29.21 29.38">
  <defs>
    <style>
      .cls-1 {
        fill: url(#_Безымянный_градиент_2-5);
      }

      .cls-2 {
        fill: url(#_Безымянный_градиент_2-6);
      }

      .cls-3 {
        fill: url(#_Безымянный_градиент_2-4);
      }

      .cls-4 {
        fill: url(#_Безымянный_градиент_2-3);
      }

      .cls-5 {
        fill: url(#_Безымянный_градиент_2);
      }

      .cls-6 {
        fill: rgba(255, 255, 255, .55);
        stroke: url(#_Безымянный_градиент_12);
        stroke-miterlimit: 11.34;
        stroke-width: 1.28px;
      }

      .cls-7 {
        fill: url(#_Безымянный_градиент_2-2);
      }
    </style>
    <linearGradient id="_Безымянный_градиент_12" data-name="Безымянный градиент 12" x1="0" y1="14.69" x2="29.21" y2="14.69" gradientUnits="userSpaceOnUse">
      <stop offset="0" stop-color="#c5a059"/>
      <stop offset=".5" stop-color="#e8d089"/>
      <stop offset="1" stop-color="#c5a059"/>
    </linearGradient>
    <linearGradient id="_Безымянный_градиент_2" data-name="Безымянный градиент 2" x1="12.72" y1="8.59" x2="13.4" y2="8.59" gradientUnits="userSpaceOnUse">
      <stop offset="0" stop-color="#c5a059"/>
      <stop offset=".5" stop-color="#e8d089"/>
      <stop offset="1" stop-color="#c5a059"/>
    </linearGradient>
    <linearGradient id="_Безымянный_градиент_2-2" data-name="Безымянный градиент 2" x1="12.01" y1="11.9" x2="14.06" y2="11.9" xlink:href="#_Безымянный_градиент_2"/>
    <linearGradient id="_Безымянный_градиент_2-3" data-name="Безымянный градиент 2" x1="14.23" y1="9.65" x2="19.29" y2="9.65" xlink:href="#_Безымянный_градиент_2"/>
    <linearGradient id="_Безымянный_градиент_2-4" data-name="Безымянный градиент 2" x1="18.85" y1="19.9" x2="23.3" y2="19.9" xlink:href="#_Безымянный_градиент_2"/>
    <linearGradient id="_Безымянный_градиент_2-5" data-name="Безымянный градиент 2" x1="17.52" y1="20.6" x2="23.63" y2="20.6" xlink:href="#_Безымянный_градиент_2"/>
    <linearGradient id="_Безымянный_градиент_2-6" data-name="Безымянный градиент 2" x1="6.48" y1="14.21" x2="19.88" y2="14.21" xlink:href="#_Безымянный_градиент_2"/>
  </defs>
  <g id="_Слой_1-2" data-name="Слой 1">
    <g>
      <ellipse class="cls-6" cx="14.61" cy="14.69" rx="13.97" ry="14.05"/>
      <g>
        <g>
          <path class="cls-5" d="M13.31,11.33h-.59c.01-2.5.09-5.45.09-5.48l.59.02s-.08,2.98-.09,5.47Z"/>
          <polygon class="cls-7" points="12.01 11.02 13.01 12.79 14.06 11.04 12.01 11.02"/>
        </g>
        <path class="cls-4" d="M19.27,10.33c-.22-.31-.43-.61-.65-.92-.05-.08-.05-.08,0-.15.1-.12.2-.25.3-.37.03-.03.03-.05.01-.09-.21-.59-.57-1.03-.99-1.4-.36-.33-.76-.59-1.19-.79-.12-.06-.25-.1-.38-.13-.05-.01-.11-.04-.15-.03-.04.02-.05.1-.07.15-.13.29-.2.6-.26.91,0,.04-.02.06-.06.06-.42-.02-.85-.03-1.27.02-.1.01-.19.04-.29.05-.04,0-.05.03-.05.07.01.33.04.66.08.99.1.87.32,2.6.35,2.78.02.11.06.31.21.42.09.06.25.12.39.09.12-.03.16-.06.16-.06,0,0-.03.31.08.49.29.48.81.47.96.44.24-.05.52-.24.62-.35.03-.04.23-.23.32-.34.19-.22.34-.4.55-.6.36-.36.76-.68,1.15-1,.06-.05.11-.1.17-.14.03-.03.04-.04.01-.08ZM18.6,10.3c-.09.07-.18.15-.27.22-.36.31-.72.62-1.03.99-.02.02-.39.47-.47.56-.09.1-.23.32-.56.3-.06,0-.24-.06-.32-.12-.1-.08-.07-.54-.06-.56.06-.42.11-.83.17-1.25,0-.04,0-.05-.04-.06-.12-.02-.24-.04-.36-.07-.05-.01-.05,0-.06.05-.02.15-.1.76-.12.92,0,.03-.02.04-.05.07-.06.07-.22.07-.29-.02-.02-.03-.05-.07-.05-.12-.03-.27-.07-.54-.1-.81-.09-.75-.19-1.5-.27-2.25,0-.05,0-.07.05-.07.33-.02.67-.01,1,0,.04,0,.04.02.04.06-.02.3-.05.61-.07.91,0,.09,0,.09.07.1.11,0,.22.02.33.03.04,0,.06,0,.06-.05.02-.32.05-.65.07-.97.03-.37.1-.72.2-1.07.01-.04.03-.05.06-.03.43.19.82.45,1.18.78.26.24.5.51.68.84.02.03.02.05,0,.08-.32.4-.63.82-.96,1.21-.03.03-.02.05,0,.08.09.1.17.19.26.29.03.04.04.04.07,0,.16-.2.32-.4.48-.6.02-.03.04-.03.06,0,.11.16.21.31.32.46.02.03.02.04,0,.07Z"/>
        <g>
          <path class="cls-3" d="M20.06,21.78c-.07,0-.13-.04-.17-.09l-1.02-1.09c-.02-.05-.03-.11-.02-.16s.03-.11.07-.15c.04-.04.08-.07.14-.08.05,0,.1,0,.15.02l.84.9,2.89-3.09s.1-.03.15-.02c.05,0,.1.04.14.08.04.04.06.09.07.15,0,.06,0,.11-.02.16l-3.05,3.28c-.04.05-.1.09-.17.09Z"/>
          <path class="cls-1" d="M20.56,23.88c-.54,0-1.08-.16-1.55-.46-.47-.3-.85-.73-1.12-1.24-.2-.38-.32-.81-.36-1.24-.06-.64.05-1.29.33-1.86.28-.57.7-1.04,1.23-1.35.36-.22.75-.35,1.15-.39.4-.05.81,0,1.2.12.03,0,.07.02.1.04.03.02.05.05.07.08.02.03.03.07.03.11,0,.04,0,.08,0,.11-.01.04-.03.07-.05.1-.02.03-.05.05-.08.07-.03.02-.07.03-.1.03-.04,0-.07,0-.1-.02-.33-.11-.67-.14-1.02-.1-.34.04-.66.15-.96.32-.29.17-.54.4-.74.67-.21.28-.37.6-.47.94-.1.35-.13.71-.09,1.07.03.36.14.72.3,1.04.16.31.37.58.62.8.26.23.56.4.88.5.32.1.66.14.99.1.34-.04.66-.15.96-.32.29-.17.54-.4.74-.67.21-.28.37-.6.47-.94.1-.35.13-.71.09-1.07,0-.04,0-.08.01-.11.01-.04.03-.07.05-.1.02-.03.05-.05.08-.07.03-.02.06-.03.1-.03.03,0,.07,0,.1.01.03.01.06.03.09.05.03.02.05.05.07.09.02.03.03.07.03.11.06.64-.05,1.29-.33,1.86-.28.57-.71,1.04-1.23,1.35-.36.22-.76.36-1.17.41h-.31Z"/>
        </g>
        <path class="cls-2" d="M9.42,9.26c0-.14.11-.25.25-.25s.25.11.25.25v4.52c0,.14-.11.25-.25.25h-2.95c-.14,0-.25-.11-.25-.25v-7.37c0-.15.06-.28.16-.38h0c.1-.1.23-.16.38-.16h2.37c.15,0,.28.06.38.16h0c.1.1.16.23.16.38v.63c0,.14-.11.25-.25.25s-.25-.11-.25-.25v-.63s0-.02-.01-.03h0s-.02-.01-.03-.01h-2.37s-.02,0-.03.01h0s-.01.02-.01.03v7.13h2.45v-4.27h0ZM9.42,19.42l-2.92-5.52c-.06-.12-.02-.27.11-.33.04-.02.08-.03.11-.03h0s12.91,0,12.91,0c.14,0,.25.11.25.25,0,0,0,.02,0,.03-.07,2.95-1.53,3.78-2.75,4.47-.72.41-1.34.76-1.46,1.52h0c-.05.3-.02.64.07,1.02.1.4.27.85.52,1.35.06.12.01.27-.11.33-.04.02-.07.03-.11.03h-7.79c-.14,0-.25-.11-.25-.25,0-.05.01-.09.04-.13l1.38-2.74h0ZM7.13,14.03l2.78,5.27c.04.07.04.15,0,.22l-1.27,2.52h7c-.18-.39-.31-.76-.39-1.1-.11-.45-.14-.85-.08-1.21h0c.15-1,.88-1.41,1.7-1.88,1.08-.62,2.36-1.34,2.49-3.83H7.13ZM9.7,19.66c-.14,0-.25-.11-.25-.25s.11-.25.25-.25h2.72c.14,0,.25.11.25.25s-.11.25-.25.25h-2.72ZM8.57,7.39c.39,0,.7.31.7.69s-.31.69-.7.69-.7-.31-.7-.69c0-.38.31-.69.7-.69h0ZM9.27,8.33c-.14,0-.25-.11-.25-.25s.11-.25.25-.25h1.68c.14,0,.25.11.25.25s-.11.25-.25.25h-1.68Z"/>
      </g>
    </g>
  </g>
</svg>