<?xml version="1.0" encoding="UTF-8"?>
<svg id="_Слой_2" data-name="Слой 2" xmlns="http://www.w3.org/2000/svg" viewBox="0 0 40.69 40.69">
  <defs>
    <style>
      .cls-1 {
        fill: #95c121;
      }

      .cls-2 {
        fill: none;
        stroke: #95c121;
      }
    </style>
  </defs>
  <g id="DIELINE">
    <g>
      <circle class="cls-2" cx="20.34" cy="20.34" r="19.84"/>
      <g>
        <path class="cls-1" d="M25.13,14.89s0-.02,0-.02c-.75-.01-1.47.1-2.18.35-.35.12-.66.24-.93.36-1.34.58-2.1.91-2.28.99-.27.11-.57.23-.89.34-.55.2-1.11.31-1.67.19-.41-.09-.81-.37-.99-.77,0,0-.01-.01-.02-.02-.01,0-.05,0-.13,0-.12,0-.25-.02-.4-.06-.35-.11-.61-.32-.77-.64-.11-.21-.14-.48-.08-.72.1-.36.33-.57.66-.73,0,0,.01-.01,0-.02-.14-.29-.17-.58-.08-.88.14-.45.57-.61,1.01-.78.39-.16.82-.32,1.29-.5.01,0,.02-.02.01-.03-.09-.26-.1-.52-.04-.79.12-.52.53-.65,1-.73,1.14-.2,2.02-.36,2.64-.49.84-.17,1.55-.32,2.26-.42.88-.12,1.64-.2,2.27-.25.47-.03,1.21-.08,2.23-.14.43-.03.88-.07,1.33-.14.51-.08.95-.17,1.31-.28.64-.2,1.24-.48,1.82-.81.11-.06.2-.1.27-.1.13,0,.24.03.32.11.17.18.13.48-.09.61-.7.41-1.43.72-2.18.92-.46.13-.98.23-1.56.3-.57.08-1.06.13-1.49.16-1.04.08-1.9.15-2.57.22-.62.06-1.15.13-1.61.21-.14.02-.3.07-.49.14-.07.02-.12.06-.17.09-.08.07-.15.15-.25.21-.03.02-.07.04-.12.06-.71.28-1.46.58-2.26.89-1.12.43-1.87.73-2.8,1.08-.42.16-.8.31-1.14.46-.06.03-.12.06-.18.1-.15.1-.21.27-.09.43,0,0,.01,0,.02,0,1.04-.47,2.15-.96,3.33-1.46.55-.23.93-.41,1.4-.6.34-.14.68-.3,1.04-.44.15-.06.33-.14.55-.24.13-.06.25-.05.35.02.25.17.19.54-.08.65-.02,0-.1.04-.25.11-1.04.45-2.49,1.07-4.35,1.87-.45.19-1.02.45-1.72.78-.29.13-.57.28-.84.43-.03.02-.05.04-.07.07-.1.21.06.43.25.53.13.07.26.09.41.07,0,0,.02,0,.02-.01.15-.21.35-.28.6-.4.69-.35,1.51-.75,2.26-1.13,1.46-.74,2.97-1.46,4.51-2.16.14-.06.23-.09.29-.09.09,0,.17.04.24.09.15.13.15.37.03.51-.03.04-.12.09-.26.15-1.12.49-2.27,1.03-3.44,1.61-.38.19-.7.35-.95.48-.81.42-1.64.84-2.51,1.27-.04.02-.07.04-.09.06,0,0-.01.02,0,.03.11.44.84.44,1.17.37.2-.05.36-.09.48-.14.84-.32,1.57-.65,2.51-1.06.17-.07.35-.15.55-.23.44-.18.91-.36,1.35-.49.69-.2,1.34-.31,1.95-.32.51,0,1.04,0,1.6.03.32.02.71-.27.92-.45.14-.12.22-.19.25-.21.13-.09.34-.13.49-.04.16.09.23.3.16.48-.04.12-.08.18-.19.27-.44.36-.94.63-1.48.83-.33.12-.66.25-1,.39-.29.12-.57.27-.83.44-.29.19-.56.44-.7.76-.1.23-.14.63.23.66.16.01.33-.01.52-.07.21-.07.4-.14.57-.22.78-.36,1.59-.66,2.41-.82.72-.14,1.07-.19,1.62-.36.7-.21,1.35-.64,1.82-1.18.07-.07.16-.13.27-.12.19,0,.3.1.34.29.02.11,0,.21-.08.3-.54.61-1.21,1.08-1.99,1.35-.67.23-1.52.36-2.07.48-.32.07-.69.18-1.11.33-.6.21-1.25.61-1.92.72-.66.11-1.28-.15-1.38-.88-.07-.58.26-1.13.68-1.52.32-.29.69-.52,1.11-.7ZM20.71,10.79c-.12.02-.24.05-.37.07-.31.05-.79.14-1.44.26-.13.02-.24.05-.34.07-.14.04-.26.11-.26.27,0,.09.02.16.05.22,0,.01.02.02.04.01l2.31-.9s0,0,0,0c0,0,0,0,0,0Z"/>
        <path class="cls-1" d="M12.06,19.68s.01,0,0,0c-.05-.05-.12-.16-.19-.23-.07-.07-.17-.18-.32-.33-.21-.21-.49-.42-.85-.63-.34-.2-.17-.72.24-.65.02,0,.09.04.2.1.43.24.8.55,1.13.91,0,0,.01,0,.01,0-.23-.59-.5-1.19-.9-1.65-.08-.09-.12-.16-.13-.21-.04-.21.07-.42.3-.44.2-.02.28.09.41.25.25.3.45.64.63,1,.16.34.32.71.45,1.1,0,.01.01.02.02.04,0,0,.01,0,.01,0-.03-.54.11-1.09.34-1.57.05-.1.11-.24.21-.29.27-.16.59.04.53.36-.02.08-.07.17-.1.23-.18.36-.28.73-.29,1.14,0,.38.03.75.12,1.11.05.18.1.37.17.57,0,0,0,0,.01,0,.2-.07.42-.11.64-.11.04,0,.09,0,.16,0,0,0,.02,0,.02-.01.09-.23.23-.44.42-.62.59-.56,1.45-.76,2.22-.5.24.08.46.23.67.43,0,0,.02.01.03,0l.25-.04s.02,0,.03-.02c.29-.56.61-1.07,1.04-1.52.5-.52,1.24-.98,1.99-.9.34.04.66.25.8.58.08.18.12.39.13.61.02.4.05.76.24,1.08.02.04.07.12.14.23.04.06.05.14.02.23-.03.1-.1.18-.21.24-.13.07-.28.03-.39-.08,0,0-.02-.01-.04-.01-.12,0-.22.03-.3.09-.07.05-.11.14-.16.22,0,0,0,.01-.02.02-.14.13-.27.14-.42.03-.22-.16-.12-.46.05-.62.17-.16.36-.25.57-.28,0,0,.01,0,0-.01-.08-.22-.13-.4-.15-.57-.01-.11-.03-.31-.05-.62,0-.04-.01-.1-.03-.17-.04-.14-.11-.22-.26-.24-.38-.06-.82.17-1.12.4-.24.19-.47.43-.68.71-.17.22-.31.46-.44.7,0,0,0,.01,0,.02.28.1.53.26.73.47.01.01.03.01.04,0,.06-.04.12-.07.19-.05.09.02.14.06.18.1.13.18.07.35-.04.53,0,.01,0,.03,0,.05.04.08.07.16.09.24.07.28-.12.54-.42.47-.11-.02-.19-.09-.23-.2-.03-.07-.04-.12-.06-.14-.21-.39-.48-.67-.88-.8-.26-.08-.52.02-.77.09,0,0-.02,0-.03,0-.16,0-.29-.06-.37-.2-.03-.05-.07-.11-.11-.15-.38-.36-.9-.37-1.36-.13-.23.12-.43.29-.58.51,0,.01,0,.02,0,.03.28.14.51.33.7.58,0,.01.02.01.04,0,.35-.28.75-.41,1.21-.4.59.02,1.07.35,1.33.86.06.12.09.21.08.29-.01.21-.21.36-.42.32-.15-.03-.23-.14-.28-.28-.08-.21-.26-.36-.47-.43-.34-.11-.65-.07-.95.12-.06.04-.11.08-.16.13,0,0,0,.01,0,.02l1.02,2.52s.02,0,.02,0c.12-.44.33-.83.63-1.18.28-.32.61-.53.99-.7.01,0,.02-.02.01-.03-.02-.05-.05-.11-.07-.18-.06-.18.04-.37.23-.44.05-.02.14-.02.24-.02.5.04.96.18,1.39.43,0,0,.02,0,.02,0,.15-.4.41-.8.78-1.02.22-.13.51.06.5.31,0,.22-.21.29-.34.44-.11.13-.2.26-.27.4,0,0,0,.02.01.02.34-.01.61-.01.95.05.24.05.46.11.66.19.26.1.29.42.1.6,0,0,0,.02,0,.02.03.05.05.08.07.1.33.38.54.82.63,1.32,0,.01.02.02.02,0l.85-1.34s.02-.03.02-.05c0-.59-.18-1.2-.44-1.73-.04-.09-.06-.16-.06-.21.01-.12.06-.2.14-.26.2-.13.42-.04.52.16.17.36.31.73.4,1.11,0,0,.01,0,.01,0,.25-.53.48-1.08.72-1.66.05-.12.1-.21.14-.25.23-.2.57-.06.58.25,0,.04-.02.12-.07.21-.04.09-.15.35-.32.76,0,0,0,.01.01.01.24-.08.49-.13.73-.15.19-.01.37.17.36.36-.01.19-.15.32-.34.34-.28.03-.56.1-.82.21-.03.01-.14.08-.34.2,0,0-.01,0-.02.02l-.54.91s0,.01,0,.01c.25-.07.53-.12.84-.14.1,0,.18,0,.25.05.12.07.19.21.17.33-.02.16-.11.26-.27.3,0,0-.02,0-.03,0-.56.02-1.08.16-1.55.43-.02.01-.04.03-.06.05-.22.34-.42.67-.6.97-.01.02-.03.06-.05.12,0,0,0,.01.01.01.12,0,.22,0,.35-.03,1.22-.25,2.32-.53,3.38-1.03.08-.04.13-.08.16-.14.18-.33.17-.77.05-1.12-.04-.11-.03-.21,0-.3.05-.11.18-.21.25-.29.4-.51.38-1.14-.07-1.6-.06-.06-.18-.14-.26-.19-.04-.03-.07-.05-.09-.09-.13-.17-.04-.33,0-.51.07-.38,0-.72-.22-1.02-.11-.15-.34-.31-.53-.35-.43-.1-.83.09-1.08.45-.06.1-.11.15-.14.17-.16.11-.28.1-.49.04-.42-.12-.79-.1-1.06.26-.1.13-.16.29-.18.48,0,.09-.02.16-.04.19-.05.12-.15.19-.3.23,0,0-.01,0-.02,0-.07,0-.18.02-.32.05-.21.05-.37.14-.49.27-.06.06-.11.1-.14.12-.16.06-.31.04-.42-.09-.11-.12-.1-.31-.01-.44.19-.28.58-.46.91-.54.09-.02.15-.03.16-.04,0,0,.02,0,.02-.02.11-.55.45-.97.97-1.15.2-.07.43-.09.69-.07.05,0,.16.02.33.06,0,0,.02,0,.02,0,.27-.32.56-.55.96-.65.86-.21,1.71.31,1.98,1.14.08.25.11.51.09.77,0,.06-.01.14-.03.26,0,.01,0,.03.01.04.14.12.27.25.37.39.23.31.36.74.34,1.13-.01.47-.18.87-.5,1.23-.01.01-.02.03-.01.05.06.23.08.48.06.73,0,0,.01.02.02,0,.18-.13.33-.25.45-.35.39-.31.78-.81.78-1.33,0-.56-.29-1.06-.76-1.36-.11-.07-.18-.12-.19-.15-.11-.17-.07-.42.11-.52.15-.08.28-.05.44.05.63.44,1.02,1.02,1.11,1.79,0,.06,0,.22,0,.47-.02.9-.15,1.8-.4,2.69,0,0,0,.02,0,.03,0,.11.02.21-.02.32-.14.4-.28.77-.43,1.11,0,0,0,.02,0,.02.76.32,1.54.6,2.37.67.1,0,.19,0,.27,0,0,0,.02,0,.02-.02,0-.97-.06-1.87-.19-2.72-.22-1.41-.65-2.75-1.24-4.08-.27-.61-.48-1.11-.64-1.5-.19-.45-.34-.9-.45-1.35-.08-.31-.14-.66-.16-.95-.02-.28.27-.48.52-.33.13.08.16.18.18.35.05.5.17,1.01.37,1.53.36.95.75,1.81,1.11,2.67.51,1.25.88,2.58,1.05,3.93.05.4.09.77.11,1.12.03.47.04.99.04,1.56,0,.2.01.3-.1.42-.1.12-.21.11-.4.12-.4,0-.75-.02-1.06-.08-.73-.14-1.45-.38-2.13-.68,0,0-.02,0-.02,0-.1.2-.22.41-.37.64-.75,1.2-1.7,2.25-2.86,3.15-.94.73-1.96,1.29-3.06,1.68-2.01.72-4.2.85-6.28.38-1.48-.34-2.86-.94-4.15-1.81-.99-.67-1.86-1.49-2.6-2.44-.3-.39-.59-.82-.87-1.28-.05-.09-.11-.2-.17-.3,0,0-.01-.01-.02,0-1.03.41-2.06.75-3.16.73-.13,0-.2,0-.22,0-.19-.03-.3-.17-.31-.36,0-.67.02-1.34.07-2.03.1-1.39.38-2.75.84-4.06.25-.73.52-1.38.81-2.05.14-.32.28-.67.41-.99.1-.26.2-.55.3-.86.22-.69.32-1.41.32-2.14,0-.12,0-.2.03-.24.04-.1.11-.17.22-.23.5-.24.93-.42,1.28-.54,1.05-.35,2.19-.59,3.44-.73.13-.01.22,0,.27.01.27.13.29.5.03.65-.04.02-.1.04-.19.04-.07,0-.14.01-.2.02-1.14.16-2.28.38-3.35.77-.28.1-.53.22-.79.34-.01,0-.02.02-.02.03-.04.86-.17,1.65-.44,2.47-.28.85-.75,1.87-1,2.46-.09.22-.22.55-.38,1-.09.25-.21.61-.35,1.09-.1.35-.18.68-.24.99-.18.92-.3,1.86-.34,2.81-.01.26-.01.52,0,.78,0,.02.01.03.03.03.09.01.19,0,.3,0,.2-.02.42-.06.67-.11.57-.13,1.12-.31,1.66-.54,0,0,0-.01,0-.02-.17-.37-.32-.74-.45-1.1-.04-.12-.04-.2-.03-.32,0-.02,0-.04,0-.05-.01-.05-.04-.16-.09-.34-.2-.77-.31-1.57-.32-2.39,0-.33.02-.59.06-.78.16-.63.58-1.14,1.15-1.46.22-.12.48-.09.58.17.05.12,0,.25-.07.34-.06.08-.21.13-.28.19-.51.36-.81.88-.68,1.52.13.64.68,1.1,1.18,1.45,0,0,.01,0,.01,0,0-.15.04-.31.09-.47,0-.03,0-.07,0-.11-.18-.86.06-1.67.82-2.15.06-.03.12-.06.19-.08.24-.05.46.13.42.37-.02.12-.09.2-.21.27-.26.15-.47.38-.55.67,0,0,0,.01.01,0,.1-.08.19-.16.28-.22.29-.18.6-.27.96-.27.01,0,.02,0,.02-.02.02-.05.03-.1.05-.16.08-.23.2-.43.35-.62,0,0,0-.01,0-.02-.4-.48-.86-.87-1.41-1.09-.26-.11-.54-.19-.85-.24-.15-.03-.24-.05-.27-.08-.11-.09-.17-.22-.13-.35.05-.2.22-.3.43-.27.2.03.37.07.57.12.33.08.57.18.89.34ZM17.66,25.99s-.03-.11-.05-.17c-.18-.43-.45-1.09-.82-1.98,0-.02-.03-.03-.05-.03-.25.03-.5.17-.7.33-.13.1-.28.16-.42.09-.22-.1-.25-.37-.11-.55.04-.05.1-.1.18-.16.24-.16.49-.29.76-.37.01,0,.02-.02.01-.03-.14-.34-.3-.71-.47-1.11-.1-.23-.19-.39-.26-.48-.63-.75-1.74-.49-2.31.16-.07.08-.15.2-.22.35-.2.4-.17.85.04,1.25,0,0,.01.01.02,0,.21-.15.41-.28.61-.38.16-.08.28-.13.36-.15.35-.09.57.3.35.57-.03.04-.1.08-.21.13-.27.12-.52.27-.75.48,0,0,0,.02,0,.02.3.52.65,1,1.03,1.44.13.15.24.24.42.27.74.14,1.49.24,2.25.3.11,0,.23.02.34.02,0,0,.01,0,0-.01ZM22.02,23.02c-.18,0-.37,0-.55,0-.11,0-.19-.01-.27-.05-.25-.12-.45-.21-.6-.28-.01,0-.02,0-.02.02.1.17.1.34,0,.51,0,0,0,.02.01.02.16-.05.3-.08.4-.1.14-.03.27,0,.41.07.14.08.3.19.46.32,0,0,.02,0,.02-.01,0-.17-.01-.35.13-.48,0,0,0-.01,0-.01ZM13.7,25.36c-.33-.43-.63-.87-.89-1.32-.22-.38-.4-.81-.44-1.27,0,0,0-.02-.02-.02-.1,0-.19.02-.27.06-.41.18-.74.48-.9.91-.09.26-.1.5-.02.73,0,0,0,.02.02.03.02.02.05.03.09.05.77.36,1.58.65,2.42.85,0,0,.01,0,0-.01ZM19.91,23.02c-.43.06-.82.31-1.09.66-.43.55-.58,1.28-.47,1.96.01.08.04.17.07.25,0,.02.02.03.03.05.08.08.13.12.25.13,1.51.08,3,0,4.55-.17.1-.01.27-.04.31-.14.04-.11.07-.23.08-.35.03-.35-.02-.69-.14-1.01-.14-.37-.38-.71-.73-.88-.03-.02-.09-.01-.17,0,0,0-.02.01-.02.02,0,.27,0,.51.03.69.01.11.01.18,0,.23-.06.2-.25.31-.44.25-.06-.02-.13-.07-.23-.16-.27-.25-.55-.48-.85-.68-.02-.02-.05-.02-.08-.01-.41.12-.76.22-1.05.29-.31.08-.54-.21-.41-.49.04-.09.12-.22.24-.41.04-.06.07-.12.12-.2,0,0,0-.02,0-.01ZM9.39,24.41s-.01,0-.01,0c.06.3.1.52.14.67.02.08.03.15.08.21.03.03.05.07.06.11.13.45.3.91.51,1.35,0,.01.02.02.03.01,1.16-.28,2.31-.28,3.47.02.37.1.68.18.92.26.47.16.83.27,1.06.34,1.01.3,2.14.38,3.18.28.15-.01.37-.03.63-.06.39-.04.7-.04,1.04,0,.28.03.55.06.81.08.95.07,1.89,0,2.79-.26.36-.1.72-.22,1.09-.34.36-.12.7-.22,1.01-.3,1.11-.28,2.22-.28,3.34,0,.02,0,.03,0,.04-.02.21-.44.38-.89.51-1.36,0-.03.02-.06.03-.08.04-.07.06-.11.06-.13.06-.26.11-.51.17-.75,0,0,0-.02-.02-.01-.52.36-1.07.66-1.66.9-.43.18-.86.33-1.28.46-.11.03-.36.11-.75.22-.29.08-.54.15-.76.19-.75.16-1.45.28-2.1.37-1.51.2-3.06.28-4.64.25-.84-.02-1.63-.07-2.37-.14-1.48-.14-2.95-.42-4.38-.86-.7-.22-1.35-.47-1.95-.76-.38-.19-.73-.4-1.05-.63Z"/>
        <path class="cls-1" d="M16.49,18.89c-.6.07-1.18.15-1.75.25-.11.02-.18.03-.22.02-.38-.07-.4-.63-.01-.7.62-.12,1.26-.22,1.9-.29.64-.07,1.28-.12,1.91-.14.4-.01.5.53.14.69-.03.01-.11.02-.22.03-.57.03-1.16.08-1.76.14Z"/>
        <rect class="cls-1" x="23.16" y="18.07" width=".7" height="1.35" rx=".33" ry=".33" transform="translate(3.76 41.41) rotate(-87.51)"/>
        <ellipse class="cls-1" cx="20.53" cy="19.42" rx=".34" ry=".3" transform="translate(-6.99 12.99) rotate(-30.26)"/>
      </g>
    </g>
  </g>
</svg>