<?xml version="1.0" encoding="UTF-8"?>
<svg id="_Слой_2" data-name="Слой 2" xmlns="http://www.w3.org/2000/svg" viewBox="0 0 40.69 40.69">
  <defs>
    <style>
      .cls-1 {
        fill: #95c121;
      }

      .cls-2 {
        fill: none;
        stroke: #95c121;
      }
    </style>
  </defs>
  <g id="DIELINE">
    <g>
      <circle class="cls-2" cx="20.34" cy="20.34" r="19.84"/>
      <path class="cls-1" d="M18.86,19.67s.04-.07.05-.12c.08-.42.12-.63.2-.96.15-.56.32-1.07.53-1.54.53-1.2,1.3-2.29,2.2-3.26.79-.86,1.66-1.59,2.61-2.22,1.12-.73,2.32-1.33,3.6-1.79,1.48-.53,2.92-.91,4.46-1.27.12-.03.33-.07.61-.13.29-.06.42-.05.41.33,0,.41-.02.66-.03.76-.1,1.38-.2,2.81-.3,4.32-.03.49-.09,1.13-.16,1.93-.1,1.04-.25,2.07-.44,3.07-.05.26-.14.63-.27,1.13-.34,1.31-.88,2.57-1.61,3.66-.76,1.13-1.69,2.05-2.8,2.77-.88.56-1.84.97-2.85,1.23-.38.1-.74.17-1.08.22-.74.1-1.48.15-2.22.15-.38,0-.82-.03-.98.42-.03.08-.04.26-.04.54,0,3.02,0,4.55,0,4.59,0,.18,0,.37-.09.49-.09.11-.19.18-.31.19-.23.03-.52.04-.76,0-.25-.04-.43-.24-.43-.52,0-1.15-.01-2.18-.12-3.31-.28-2.91-1.22-5.55-2.8-7.91-.89-1.32-2-2.48-3.27-3.35-.37-.26-.75-.47-1.13-.64-.18-.08-.59-.25-.76-.13-.2.14-.07.38.07.52.63.6,1.09,1.05,1.39,1.34.09.09.28.29.57.6,1,1.07,1.91,2.24,2.72,3.51.46.72.86,1.47,1.21,2.24.26.57.49,1.19.69,1.85.04.13.06.26.07.39.01.24-.17.25-.34.27-1.65.18-3.21-.06-4.7-.72-1.5-.66-2.75-1.68-3.74-3.04-1.16-1.59-1.9-3.45-2.33-5.4-.12-.55-.23-1.15-.33-1.78-.16-.98-.31-2.14-.45-3.48-.07-.66-.12-1.23-.15-1.73,0-.12,0-.25.01-.39.01-.12.08-.19.19-.2.14-.01.3,0,.5.01,1.37.17,2.69.43,3.97.79.78.22,1.56.51,2.35.87,2.17.99,4.1,2.58,5.42,4.69.2.33.37.64.56,1,.02.03.06.04.09.01ZM20.82,26.63s.03.04.05.03c.18-.02.41-.23.54-.35.33-.32.61-.68.86-1.09.37-.61.71-1.29,1.02-2.04.36-.87.66-1.55.88-2.03.27-.59.59-1.2.96-1.82.78-1.33,1.78-2.58,2.83-3.68.35-.37.75-.77,1.19-1.21.08-.08.13-.15.15-.21.09-.29-.16-.38-.37-.3-.32.13-.63.3-.94.5-.36.24-.64.44-.84.61-2.03,1.65-3.69,3.83-4.85,6.26-.37.77-.68,1.6-.92,2.41-.22.75-.39,1.54-.51,2.36-.03.24-.05.42-.05.53,0,.02,0,.03,0,.03Z"/>
    </g>
  </g>
</svg>