<?xml version="1.0" encoding="UTF-8"?>
<svg id="_Слой_2" data-name="Слой 2" xmlns="http://www.w3.org/2000/svg" viewBox="0 0 40.69 40.69">
  <defs>
    <style>
      .cls-1 {
        fill: #95c121;
      }

      .cls-2 {
        fill: none;
        stroke: #95c121;
      }
    </style>
  </defs>
  <g id="DIELINE">
    <g>
      <circle class="cls-2" cx="20.34" cy="20.34" r="19.84"/>
      <g>
        <path class="cls-1" d="M28.94,29.21s0-.01-.01-.01H11.55s-.02,0-.02.02c0,.28,0,.51,0,.7,0,.16,0,.26-.04.3-.1.17-.22.18-.44.18-.59,0-1.3,0-2.1,0-.14,0-.24-.05-.29-.15-.03-.06-.05-.17-.05-.31,0-.2,0-.44,0-.72,0,0,0-.01-.02-.01-.21,0-.39,0-.51,0-.23,0-.4,0-.51-.03-.59-.11-1.05-.55-1.18-1.12-.02-.1-.03-.33-.03-.7,0-2.79,0-7.44,0-13.96,0-.2,0-.38.02-.53.12-.73.76-1.23,1.51-1.23,9.93,0,18.17,0,24.7,0,.23,0,.43.04.61.11.57.23.94.75.94,1.36,0,8.58,0,13.31,0,14.2,0,.4,0,.64-.03.73-.06.29-.2.54-.41.75-.29.29-.66.43-1.11.43-.2,0-.44,0-.71,0,0,0-.02,0-.02.01,0,.15,0,.39,0,.72,0,.12,0,.21-.03.26-.1.23-.3.2-.52.2-.76,0-1.39,0-1.87,0-.11,0-.18,0-.21,0-.26-.04-.31-.23-.3-.46,0-.19,0-.43,0-.72ZM32.73,13.61c0-.19-.15-.34-.34-.34h-4.65c-.19,0-.34.15-.34.34v2.92c0,.19.15.34.34.34h4.65c.19,0,.34-.15.34-.34v-2.92ZM14.24,24.87s0,0,0-.01c-.9-.47-1.6-1.11-2.12-1.91-.44-.69-.71-1.49-.79-2.28,0-.09-.02-.26-.03-.52,0-.15,0-.26.05-.32.07-.12.18-.17.33-.17,3.55,0,6.96,0,10.23,0,.24,0,.37.11.38.34.03.5-.03,1.01-.17,1.53-.32,1.2-1.08,2.25-2.12,2.96-.21.15-.42.27-.62.36,0,0,0,0,0,0,0,0,0,0,0,0,0,0,0,0,0,0,1.8,0,2.95,0,3.46,0,.3,0,.52.01.63.04.26.06.49.2.67.42.18.22.28.47.28.77,0,.31,0,.63,0,.97,0,.01,0,.02.02.02.14,0,.32.01.45-.01.37-.07.65-.39.65-.76,0-.12,0-4.19,0-12.21,0-.32-.14-.56-.43-.72-.12-.07-.24-.1-.36-.1-3.94,0-9.17,0-15.68,0-.18,0-.31.01-.39.04-.35.11-.57.42-.57.78,0,2.92,0,6.93,0,12.02,0,.21.01.36.04.43.07.21.21.36.41.46.19.09.37.08.61.08,0,0,.02,0,.02-.02,0-.19,0-.45,0-.75,0-.26.01-.44.04-.54.13-.43.46-.75.9-.86.12-.03.29-.04.51-.04.16,0,1.36,0,3.58,0ZM28.78,18.37c0-.18-.15-.32-.33-.32h-.72c-.18,0-.33.14-.33.32v.03c0,.18.15.32.33.32h.72c.18,0,.33-.14.33-.32v-.03ZM30.78,18.37c0-.18-.15-.32-.33-.32h-.7c-.18,0-.33.15-.33.33v.03c0,.18.15.32.33.32h.7c.18,0,.33-.15.33-.33v-.03ZM32.77,18.37c0-.18-.15-.32-.33-.32h-.71c-.18,0-.33.14-.33.32v.03c0,.18.15.32.33.32h.71c.18,0,.33-.14.33-.32v-.03ZM28.78,19.97c0-.18-.15-.32-.33-.32h-.73c-.18,0-.33.14-.33.32v.03c0,.18.15.32.33.32h.73c.18,0,.33-.14.33-.32v-.03ZM30.78,19.97c0-.18-.15-.32-.33-.32h-.72c-.18,0-.33.14-.33.32v.03c0,.18.15.32.33.32h.72c.18,0,.33-.14.33-.32v-.03ZM32.78,19.96c0-.18-.15-.32-.33-.32h-.72c-.18,0-.33.15-.33.32v.03c0,.18.15.32.33.32h.72c.18,0,.33-.15.33-.32v-.03ZM12.05,20.92s.01.03.03.03h9.44s.03-.01.03-.03l.07-.53s-.01-.03-.03-.03h-9.56s-.03.02-.03.03l.05.53ZM28.78,21.55c0-.18-.15-.32-.33-.32h-.72c-.18,0-.33.15-.33.32v.03c0,.18.15.32.33.32h.72c.18,0,.33-.15.33-.32v-.03ZM30.78,21.54c0-.18-.15-.32-.33-.32h-.71c-.18,0-.33.15-.33.33v.03c0,.18.15.32.33.32h.71c.18,0,.33-.15.33-.33v-.03ZM32.78,21.55c0-.18-.15-.32-.33-.32h-.71c-.18,0-.33.14-.33.32v.03c0,.18.15.32.33.32h.71c.18,0,.33-.14.33-.32v-.03ZM27.81,25.34c-.02,1.22.99,2.22,2.25,2.24,1.26.02,2.3-.95,2.32-2.17.02-1.22-.99-2.22-2.25-2.24-1.26-.02-2.3.95-2.32,2.17ZM16.81,27.09c4.58,0,6.88,0,6.92,0,0,0,.02,0,.02-.02,0-.39,0-.72,0-.99,0-.29-.26-.51-.55-.52-.44,0-2.56,0-6.38,0-3.82,0-5.94,0-6.38,0-.3,0-.55.22-.55.52,0,.27,0,.6,0,.99,0,0,0,.02.02.02.03,0,2.34,0,6.92,0Z"/>
        <rect class="cls-1" x="28.07" y="13.96" width="3.98" height="2.24" rx=".66" ry=".66"/>
        <path class="cls-1" d="M14.22,18.6c-.02-.07-.02-.15,0-.23.02-.08.12-.17.15-.24.2-.39.12-.74-.17-1.05-.29-.32-.47-.69-.45-1.12.02-.33.16-.66.38-.92.27-.33.78.03.56.4-.03.05-.1.12-.14.19-.15.28-.15.55,0,.82.03.05.08.12.16.2.2.22.34.45.41.74.11.47-.04.96-.35,1.34-.17.2-.51.12-.58-.12Z"/>
        <path class="cls-1" d="M17.07,18.72c-.17.2-.51.12-.58-.12-.02-.07-.02-.15,0-.23.02-.08.12-.17.15-.24.2-.39.12-.74-.17-1.05-.29-.32-.47-.69-.45-1.12.02-.33.17-.66.38-.92.27-.33.78.03.56.4-.03.05-.1.12-.14.19-.15.28-.15.55,0,.82.03.05.08.12.16.2.2.22.34.45.41.74.11.47-.04.96-.35,1.34Z"/>
        <path class="cls-1" d="M18.79,18.6c-.02-.07-.02-.15,0-.23.02-.08.12-.17.15-.24.2-.39.12-.74-.17-1.05-.29-.32-.47-.69-.45-1.12.02-.33.16-.66.38-.92.27-.33.78.03.56.4-.03.05-.1.12-.14.19-.15.28-.15.55,0,.82.03.06.08.12.16.2.2.22.34.45.41.73.11.47-.04.96-.35,1.34-.17.2-.51.12-.58-.12Z"/>
        <path class="cls-1" d="M31.47,24.6s0,0,0,0c.21.33.27.69.19,1.08-.03.16-.11.36-.2.5-.27.41-.65.64-1.14.72-.5.07-1.03-.1-1.39-.45-.58-.57-.61-1.47-.06-2.07.52-.58,1.47-.7,2.12-.25,0,0,0,.01,0,.02-.34.33-.63.61-.88.86-.09.09-.12.19-.1.31.05.25.37.31.54.14.14-.14.43-.42.88-.85,0,0,0,0,.02,0Z"/>
      </g>
    </g>
  </g>
</svg>